<?xml version="1.0" encoding="UTF-8" standalone="no"?>
<!-- Created with Inkscape (http://www.inkscape.org/) -->

<svg
   xmlns:dc="http://purl.org/dc/elements/1.1/"
   xmlns:cc="http://creativecommons.org/ns#"
   xmlns:rdf="http://www.w3.org/1999/02/22-rdf-syntax-ns#"
   xmlns:svg="http://www.w3.org/2000/svg"
   xmlns="http://www.w3.org/2000/svg"
   xmlns:sodipodi="http://sodipodi.sourceforge.net/DTD/sodipodi-0.dtd"
   xmlns:inkscape="http://www.inkscape.org/namespaces/inkscape"
   width="600mm"
   height="300mm"
   viewBox="0 0 600 300"
   version="1.1"
   id="svg9826"
   inkscape:version="0.92.3 (2405546, 2018-03-11)"
   sodipodi:docname="MDF_cuts_3mm_kerf01_v2_StandFace_Furnier.svg">
  <defs
     id="defs9820" />
  <sodipodi:namedview
     id="base"
     pagecolor="#ffffff"
     bordercolor="#666666"
     borderopacity="1.0"
     inkscape:pageopacity="0.0"
     inkscape:pageshadow="2"
     inkscape:zoom="0.5546875"
     inkscape:cx="532.1818"
     inkscape:cy="673.50139"
     inkscape:document-units="mm"
     inkscape:current-layer="layer1"
     showgrid="false"
     inkscape:window-width="1280"
     inkscape:window-height="747"
     inkscape:window-x="-8"
     inkscape:window-y="-8"
     inkscape:window-maximized="1" />
  <metadata
     id="metadata9823">
    <rdf:RDF>
      <cc:Work
         rdf:about="">
        <dc:format>image/svg+xml</dc:format>
        <dc:type
           rdf:resource="http://purl.org/dc/dcmitype/StillImage" />
        <dc:title></dc:title>
      </cc:Work>
    </rdf:RDF>
  </metadata>
  <g
     inkscape:label="Ebene 1"
     inkscape:groupmode="layer"
     id="layer1"
     transform="translate(0,3)">
    <path
       id="path4037"
       style="fill:none;stroke:#ff0000;stroke-width:0.26458332"
       d="m 101.14388,0.61486909 0.87899,-0.005 0.87901,0.003 0.87899,0.01105 0.879,0.01895 0.88001,0.02595 0.88001,0.03506 0.87899,0.043 0.879,0.05 0.878,0.059 0.87801,0.066 0.87799,0.074 0.876,0.083 0.876,0.08999 0.875,0.09799 0.874,0.106015 0.87301,0.11298 0.87199,0.122 0.871,0.13002 0.869,0.137 0.868,0.14499 0.867,0.15301 0.866,0.161 0.864,0.16899 0.86301,0.177 0.86099,0.18399 0.859,0.19201 0.857,0.2 0.856,0.20701 0.853,0.215 0.852,0.22299 0.85,0.23101 0.847,0.23799 0.846,0.24601 0.843,0.254 0.841,0.26099 0.83801,0.26799 0.83599,0.27702 0.833,0.283 0.831,0.29199 0.828,0.29901 0.826,0.30599 0.82201,0.313 0.81999,0.322 0.817,0.328 0.814,0.336 0.811,0.34301 0.807,0.34999 0.805,0.358 0.801,0.365 0.798,0.372 0.794,0.3799999 0.791,0.385998 0.788,0.39401 0.78301,0.40098 0.78099,0.40801 0.776,0.414 0.773,0.42201 0.769,0.42899 0.765,0.43601 0.761,0.44199 0.757,0.45 0.753,0.45601 0.749,0.46299 0.744,0.47001 0.741,0.47598 0.736,0.48401 0.731,0.489 0.727,0.49699 0.723,0.503 0.718,0.50901 0.714,0.51599 0.708,0.52202 0.704,0.52898 0.7,0.53502 0.694,0.54099 0.68901,0.547 0.68499,0.55401 0.679,0.55999 0.675,0.566 0.669,0.572 0.664,0.57801 0.659,0.58399 0.653,0.58999 0.648,0.596 0.643,0.601 0.637,0.60802 0.632,0.61298 0.626,0.61902 0.621,0.624 0.615,0.62999 0.60901,0.63601 0.60399,0.64098 0.597,0.64601 0.592,0.65201 0.586,0.65699 0.58,0.66299 0.574,0.66701 0.568,0.673 0.562,0.67799 0.555,0.68302 0.55,0.688 0.543,0.69199 0.537,0.698 0.531,0.703 0.524,0.70699 0.518,0.71202 0.51101,0.71599 0.50499,0.72199 0.499,0.72502 0.492,0.72998 0.485,0.73501 0.479,0.73901 0.471,0.743 0.466,0.74798 0.458,0.75102 0.452,0.75599 0.444,0.75999 0.43801,0.76401 0.43099,0.76701 0.424,0.772 0.417,0.77499 0.411,0.77901 0.403,0.78298 0.395,0.786 0.389,0.79002 0.382,0.79399 0.374,0.796 0.368,0.801 0.36,0.80301 0.353,0.807 0.345,0.808986 0.338,0.81301 0.331,0.816 0.323,0.819 0.317,0.822 0.308,0.824 0.301,0.82798 0.294,0.82903 0.286,0.83299 0.27901,0.835 0.27099,0.83801 0.263,0.84 0.256,0.84198 0.24901,0.845 0.23999,0.84702 0.233,0.84899 0.226,0.85101 0.217,0.85299 0.21,0.855 0.203,0.85701 0.19401,0.85799 0.18699,0.86101 0.179,0.86198 0.171,0.86302 0.163,0.865 0.156,0.86699 0.148,0.86799 0.14,0.869 0.132,0.87101 0.124,0.87101 0.116,0.87299 0.109,0.874 0.1,0.874 0.093,0.876 0.085,0.87601 0.076,0.87699 0.069,0.87799 0.061,0.87802 0.053,0.879 0.046,0.879 0.037,0.87998 0.029,0.88 -0.003,0.019 -0.011,0.017 -0.017,0.0111 -0.019,0.004 h -5.261 v 5.499992 h 5.261 l 0.019,0.004 0.017,0.0111 0.011,0.0169 0.003,0.019 -0.029,0.88202 -0.038,0.88198 -0.045,0.88101 -0.053,0.88101 -0.061,0.87998 -0.07,0.879 -0.077,0.87902 -0.085,0.878 -0.093,0.87799 -0.101,0.87601 -0.108,0.87598 -0.11699,0.874 -0.12501,0.874 -0.132,0.87201 -0.141,0.87101 -0.148,0.87 -0.156,0.868 -0.16399,0.86698 -0.172,0.865 -0.18001,0.864 -0.187,0.86201 -0.196,0.86101 -0.203,0.85799 -0.211,0.85701 -0.218,0.85498 -0.226,0.85302 -0.234,0.85 -0.242,0.84899 -0.249,0.84601 -0.257,0.84399 -0.265,0.84201 -0.27199,0.83899 -0.28001,0.83701 -0.287,0.834 -0.295,0.831 -0.30199,0.82899 -0.31001,0.82601 -0.318,0.82399 -0.32399,0.81999 -0.33201,0.81701 -0.34,0.815 -0.34699,0.811 -0.35401,0.80801 -0.362,0.80499 -0.368,0.801 -0.37599,0.79899 -0.38301,0.79402 -0.391,0.79099 -0.397,0.78801 -0.405,0.78399 -0.41199,0.77999 -0.41801,0.777 -0.426,0.77301 -0.433,0.76901 -0.43899,0.76499 -0.44701,0.761 -0.453,0.75599 -0.461,0.753 -0.467,0.74901 -0.473,0.74401 -0.481,0.73999 -0.487,0.73599 -0.494,0.73102 -0.5,0.72599 -0.507,0.72199 -0.514,0.718 -0.52,0.713 -0.52599,0.708 -0.53301,0.70302 -0.539,0.69898 -0.545,0.69302 -0.552,0.68898 -0.558,0.68302 -0.563,0.679 -0.571,0.67299 -0.576,0.668 -0.582,0.66299 -0.588,0.65802 -0.59399,0.65199 -0.60001,0.64701 -0.60599,0.64198 -0.61101,0.63601 -0.61799,0.63 -0.62301,0.625 -0.628,0.61899 -0.634,0.61301 -0.64,0.60799 -0.645,0.602 -0.651,0.59601 -0.656,0.58999 -0.661,0.58401 -0.666,0.57801 -0.67199,0.57198 -0.677,0.56602 -0.68201,0.55999 -0.687,0.55301 -0.692,0.548 -0.697,0.541 -0.701,0.53498 -0.707,0.52801 -0.711,0.52199 -0.716,0.51602 -0.721,0.50898 -0.725,0.50202 -0.72999,0.49599 -0.73401,0.49001 -0.738,0.48199 -0.743,0.47601 -0.74699,0.469 -0.75201,0.46299 -0.755,0.45501 -0.76,0.449 -0.764,0.44198 -0.767,0.435 -0.772,0.42802 -0.775,0.42098 -0.779,0.41402 -0.783,0.40698 -0.786,0.4 -0.791,0.39301 -0.793,0.385 -0.797,0.37801 -0.801,0.37099 -0.803,0.36399 -0.807,0.357 -0.811,0.34902 -0.813,0.342 -0.816,0.33499 -0.82,0.32699 -0.822,0.31901 -0.825,0.313 -0.828,0.30499 -0.83099,0.29702 -0.83301,0.28998 -0.836,0.28202 -0.839,0.27398 -0.84,0.26802 -0.84399,0.259 -0.845,0.25199 -0.848,0.244 -0.85001,0.23601 -0.852,0.229 -0.854,0.221 -0.856,0.214 -0.858,0.205 -0.86,0.19798 -0.862,0.19 -0.863,0.18201 -0.865,0.17499 -0.866,0.166 -0.868,0.15902 -0.87,0.151 -0.87,0.143 -0.872,0.13499 -0.873,0.127 -0.874,0.11901 -0.87599,0.112 -0.87601,0.103 -0.877,0.096 -0.878,0.087 -0.878,0.08 -0.88,0.072 -0.88,0.064 -0.88,0.055 -0.881,0.048 -0.882,0.04 -0.881,0.032 -0.88199,0.024 -0.88201,0.016 -0.88299,0.008 h -0.882 l -0.88201,-0.008 -0.881988,-0.016 -0.882,-0.024 -0.88201,-0.032 -0.88099,-0.04 -0.881,-0.048 -0.88101,-0.055 -0.87999,-0.064 -0.87901,-0.072 -0.87899,-0.08 -0.87801,-0.087 -0.87699,-0.096 -0.876,-0.103 -0.875,-0.112 -0.874,-0.11901 -0.874,-0.127 -0.87101,-0.13499 -0.871,-0.143 -0.869,-0.151 -0.868,-0.15902 -0.867,-0.166 -0.864,-0.17499 -0.86399,-0.18201 -0.861,-0.19 -0.86001,-0.19798 -0.85799,-0.205 -0.85601,-0.214 -0.85399,-0.221 -0.852,-0.229 -0.85,-0.23601 -0.848,-0.244 -0.84601,-0.25199 -0.843,-0.259 -0.841,-0.26802 -0.838,-0.27398 -0.836,-0.28202 -0.834,-0.28998 -0.83,-0.29702 -0.828,-0.30499 -0.826,-0.313 -0.822,-0.31901 -0.819,-0.32699 -0.817,-0.33499 -0.813,-0.342 -0.81,-0.34902 -0.807,-0.357 -0.804,-0.36399 -0.8,-0.37099 -0.797,-0.37801 -0.794,-0.385 -0.79,-0.39301 -0.787,-0.4 -0.782,-0.40698 -0.78,-0.41402 -0.775,-0.42098 -0.771,-0.42802 -0.768,-0.435 -0.764,-0.44198 -0.759,-0.449 -0.756,-0.45501 -0.751,-0.46299 -0.747,-0.469 -0.743,-0.47601 -0.739,-0.48199 -0.734,-0.49001 -0.73,-0.49599 -0.725,-0.50202 -0.721,-0.50898 -0.715,-0.51602 -0.712,-0.52199 -0.706,-0.52801 -0.702,-0.53498 -0.697,-0.541 -0.692,-0.548 -0.687,-0.55301 -0.682,-0.55999 -0.677,-0.56602 -0.671,-0.57198 -0.667,-0.57801 -0.661,-0.58401 -0.656,-0.58999 -0.65,-0.59601 -0.646,-0.602 -0.639,-0.60799 -0.634,-0.61301 -0.629,-0.61899 -0.623,-0.625 -0.617,-0.63 -0.612,-0.63601 -0.606,-0.64198 -0.599,-0.64701 -0.595,-0.65199 -0.588,-0.65802 -0.582,-0.66299 -0.576,-0.668 -0.57,-0.67299 -0.564,-0.679 -0.558,-0.68302 -0.552,-0.68898 -0.545,-0.69302 -0.539,-0.69898 -0.533,-0.70302 -0.526,-0.708 -0.52,-0.713 -0.513,-0.718 -0.507,-0.72199 -0.501,-0.72599 -0.493,-0.73102 -0.488,-0.73599 -0.48,-0.73999 -0.474,-0.74401 -0.467,-0.74901 -0.46,-0.753 -0.454,-0.75599 -0.446,-0.761 -0.44,-0.76499 -0.432,-0.76901 -0.426,-0.77301 -0.419,-0.777 -0.412,-0.77999 -0.404,-0.78399 -0.398,-0.78801 -0.39,-0.79099 -0.383,-0.79402 -0.376,-0.79899 -0.369,-0.801 -0.362,-0.80499 -0.354,-0.80801 -0.347,-0.811 -0.339,-0.815 -0.332,-0.81701 -0.325,-0.81999 -0.317,-0.82399 -0.31,-0.82601 -0.303,-0.82899 -0.294,-0.831 -0.2880002,-0.834 -0.28,-0.83701 -0.272,-0.83899 -0.264,-0.84201 -0.257,-0.84399 -0.25,-0.84601 -0.241,-0.84899 -0.234,-0.85 -0.226,-0.85302 -0.219,-0.85498 -0.211,-0.85701 -0.203,-0.85799 -0.195,-0.86101 -0.188,-0.86201 -0.179,-0.864 -0.172,-0.865 -0.164,-0.86698 -0.156,-0.868 -0.149,-0.87 -0.14,-0.87101 -0.133,-0.87201 -0.124,-0.874 -0.117,-0.874 -0.109,-0.87598 -0.101,-0.87601 -0.093,-0.87799 -0.085,-0.878 -0.077,-0.87902 -0.069,-0.879 -0.061,-0.87998 -0.054,-0.88101 -0.045,-0.88101 -0.037,-0.88198 -0.03,-0.88202 0.004,-0.019 0.011,-0.0169 0.016,-0.0111 0.019,-0.004 h 5.26101 v -5.499992 h -5.26101 l -0.019,-0.004 -0.016,-0.011 -0.011,-0.0169 -0.004,-0.0191 0.03,-0.879 0.037,-0.87799 0.045,-0.87799 0.053,-0.87802 0.061,-0.87598 0.068,-0.87702 0.077,-0.875 0.084,-0.87498 0.093,-0.875 0.1,-0.87302 0.108,-0.87199 0.116,-0.87199 0.12401,-0.87 0.13199,-0.869 0.139,-0.86802 0.148,-0.86598 0.155,-0.866 0.163,-0.863 0.17,-0.86301 0.179,-0.86001 0.186,-0.86 0.194,-0.85698 0.202,-0.855 0.209,-0.854 0.21701,-0.85201 0.22499,-0.85 0.232,-0.84799 0.24001,-0.845 0.24799,-0.84402 0.255,-0.84098 0.26301,-0.83902 0.26999,-0.83598 0.27801,-0.83402 0.2849902,-0.83198 0.293,-0.82802 0.3,-0.826 0.30801,-0.824 0.31499,-0.821 0.323,-0.81701 0.329,-0.81499 0.338,-0.81201 0.34401,-0.808986 0.35199,-0.80499 0.359,-0.80301 0.366,-0.79899 0.373,-0.795 0.381,-0.793 0.388,-0.78902 0.394,-0.78499 0.402,-0.782 0.409,-0.77801 0.416,-0.77399 0.423,-0.77099 0.43,-0.767 0.436,-0.76301 0.444,-0.75901 0.45,-0.75499 0.45701,-0.75099 0.464,-0.74602 0.46999,-0.74298 0.478,-0.738 0.484,-0.73401 0.49,-0.729 0.497,-0.72499 0.50401,-0.72101 0.50999,-0.71599 0.516,-0.71102 0.523,-0.70699 0.529,-0.70199 0.535,-0.69702 0.542,-0.69199 0.54801,-0.68699 0.554,-0.683 0.55999,-0.67701 0.567,-0.67199 0.572,-0.668 0.578,-0.66201 0.585,-0.65601 0.59,-0.65198 0.596,-0.64601 0.602,-0.64101 0.607,-0.635 0.614,-0.63 0.618,-0.62399 0.625,-0.61799 0.63,-0.61301 0.636,-0.60799 0.641,-0.601 0.646,-0.596 0.652,-0.59002 0.657,-0.58399 0.662,-0.57801 0.668,-0.572 0.672,-0.56599 0.678,-0.55899 0.682,-0.55401 0.688,-0.54801 0.693,-0.54099 0.697,-0.53499 0.702,-0.529 0.707,-0.52301 0.712,-0.51599 0.716,-0.509 0.721,-0.503 0.725,-0.49702 0.73,-0.48998 0.734,-0.48401 0.738,-0.47601 0.743,-0.47098 0.747,-0.463 0.751,-0.45701 0.755,-0.45 0.759,-0.443 0.763,-0.436 0.767,-0.429 0.771,-0.42299 0.775,-0.415 0.778,-0.40902 0.782,-0.401 0.786,-0.395 0.789,-0.386998 0.793,-0.38 0.796,-0.3729799 0.799,-0.366 0.802,-0.35801 0.806,-0.352 0.809,-0.34401 0.812,-0.337 0.815,-0.32898 0.818,-0.322 0.821,-0.31501 0.823,-0.307 0.827,-0.30001 0.829,-0.29199 0.831,-0.28499 0.834,-0.27802 0.837,-0.26998 0.839,-0.26202 0.84101,-0.25498 0.844,-0.24701 0.845,-0.239 0.848,-0.23199 0.85,-0.225 0.85199,-0.216 0.85401,-0.209 0.856,-0.201 0.857,-0.19402 0.859,-0.18598 0.861,-0.17801 0.862,-0.16999 0.86399,-0.16201 0.866,-0.15499 0.86601,-0.147 0.868,-0.13902 0.86899,-0.13099 0.871,-0.12401 0.87101,-0.11499 0.873,-0.108 0.873,-0.09999 0.87399,-0.09201 0.87501,-0.084 0.876,-0.07599 0.87599,-0.068 0.87701,-0.061 0.87799,-0.05199 0.87801,-0.045 0.87799,-0.03601 0.87801,-0.029 0.878988,-0.02096 z m 2.444,7.49498501 v -4.313 -0.48699 -0.10001 h -2.9 v 4.9 z m 59.50675,91.7491739 c 2.25934,-1.27739 0.35031,-4.66777 -1.91349,-3.39831 -2.25934,1.27739 -0.35031,4.667772 1.91349,3.39831 z M 122.86927,48.732472 c 1.23074,1.48514 3.46102,-0.35433 2.23723,-1.8452 -1.23074,-1.48514 -3.46102,0.35433 -2.23723,1.8452 z m -19.03222,-11.52935 c -1.27713,-2.26025 -4.668678,-0.3506 -3.39833,1.91347 1.27712,2.26025 4.66868,0.3506 3.39833,-1.91347 z m 9.21508,-14.98661 c -1.25905,-1.87936 -4.07999,0.002 -2.82849,1.88669 1.25905,1.87936 4.07999,-0.002 2.82849,-1.88669 z m -4.91425,3.99336 v -6.1 h -4.34999 v 4 2.1 z m -7.64999,-6.1 h -4.350008 v 6.1 h 4.350008 v -2.00001 z m -6.906698,4.46426 c 1.87974,-1.25893 -0.002,-4.08034 -1.88661,-2.82855 -1.87974,1.25893 0.002,4.08034 1.88661,2.82855 z m -50.43215,71.918386 c -2.22295,-1.34747 -4.24528,1.98724 -2.02232,3.33471 2.22296,1.347472 4.24528,-1.98724 2.02232,-3.33471 z m 35.71535,-28.25861 c -0.36352,1.895 2.47605,2.44548 2.84699,0.55192 0.36352,-1.895 -2.47605,-2.44548 -2.84699,-0.55192 z m 0.50092,-21.542666 c -1.48416,1.23081 0.35436,3.46002 1.84516,2.23726 1.48416,-1.23081 -0.35437,-3.46002 -1.84516,-2.23726 z m 1.57256,18.838626 0.14701,0.036 0.145,0.043 0.143,0.05 0.13999,0.057 0.13701,0.065 0.134,0.071 0.12999,0.077 0.126,0.084 0.12201,0.09 0.117,0.096 0.112,0.10099 0.107,0.107 0.101,0.11202 0.096,0.117 0.09,0.122 0.084,0.126 0.077,0.12999 0.071,0.13401 0.065,0.137 0.057,0.13999 0.05,0.14301 0.043,0.14499 0.036,0.147 0.029,0.14801 0.021,0.14999 0.014,0.151 0.006,0.151 37.200998,2e-5 0.39899,2e-5 0.006,-0.151 0.014,-0.151 0.021,-0.14999 0.029,-0.14801 0.036,-0.147 0.043,-0.14499 0.05,-0.14301 0.057,-0.13999 0.065,-0.137 0.071,-0.13401 0.077,-0.12999 0.084,-0.126 0.09,-0.122 0.096,-0.117 0.101,-0.11202 0.107,-0.107 0.112,-0.10099 0.117,-0.096 0.122,-0.09 0.126,-0.084 0.13,-0.077 0.134,-0.071 0.13701,-0.065 0.13999,-0.057 0.143,-0.05 0.145,-0.043 0.147,-0.036 0.148,-0.029 0.15,-0.0209 0.151,-0.014 0.151,-0.006 V 50.860012 l -0.151,-0.006 -0.151,-0.014 -0.15,-0.0209 -0.148,-0.0291 -0.147,-0.036 -0.145,-0.043 -0.143,-0.05 -0.13999,-0.057 -0.13701,-0.065 -0.134,-0.071 -0.13,-0.077 -0.126,-0.084 -0.122,-0.09 -0.117,-0.096 -0.112,-0.10101 -0.107,-0.10699 -0.101,-0.112 -0.096,-0.117 -0.09,-0.122 -0.084,-0.12599 -0.077,-0.13002 -0.071,-0.13399 -0.065,-0.137 -0.057,-0.13999 -0.05,-0.14301 -0.043,-0.14499 -0.036,-0.147 -0.029,-0.14801 -0.021,-0.14999 -0.014,-0.151 -0.006,-0.15102 H 83.337882 l -0.006,0.15102 -0.014,0.151 -0.021,0.14999 -0.029,0.14801 -0.036,0.147 -0.043,0.14499 -0.05,0.14301 -0.057,0.13999 -0.065,0.137 -0.071,0.13399 -0.077,0.13002 -0.084,0.12599 -0.09,0.122 -0.096,0.117 -0.101,0.112 -0.107,0.10699 -0.112,0.10102 -0.117,0.096 -0.12201,0.09 -0.126,0.084 -0.12999,0.077 -0.134,0.071 -0.13701,0.065 -0.13999,0.057 -0.143,0.05 -0.145,0.043 -0.14701,0.036 -0.148,0.029 -0.14999,0.0209 -0.151,0.014 -0.151,0.006 v 14.599986 l 0.151,0.006 0.151,0.014 0.14999,0.0209 z m 41.931368,3.90262 c 1.23094,1.48266 3.45852,-0.3545 2.23726,-1.84515 -1.23094,-1.48266 -3.45852,0.3545 -2.23726,1.84515 z m -2.27462,38.295582 c 2.25934,-1.27739 0.35031,-4.66777 -1.91349,-3.39831 -2.25934,1.27739 -0.35031,4.66777 1.91349,3.39831 z m -13.50674,-9.568212 c 0,-2.73381 -2.21619,-4.95 -4.95,-4.95 -6.598118,0.002 -6.598118,9.901882 0,9.900002 2.73381,0 4.95,-2.21619 4.95,-4.950002 z m -24.117348,6.857832 c -1.3461,2.22261 1.98859,4.24495 3.33469,2.02234 1.3461,-2.22261 -1.98859,-4.24495 -3.33469,-2.02234 z m 21.117348,53.14217 c -0.002,-2.59814 -3.90186,-2.59814 -3.9,0 0.002,2.59814 3.90186,2.59814 3.9,0 z m -0.50001,34.95 v -4.9 h -2.9 v 4.9 h 1.00001 z"
       inkscape:connector-curvature="0"
       sodipodi:nodetypes="cccccccccccccccccccccccccccccccccccccccccccccccccccccccccccccccccccccccccccccccccccccccccccccccccccccccccccccccccccccccccccccccccccccccccccccccccccccccccccccccccccccccccccccccccccccccccccccccccccccccccccccccccccccccccccccccccccccccccccccccccccccccccccccccccccccccccccccccccccccccccccccccccccccccccccccccccccccccccccccccccccccccccccccccccccccccccccccccccccccccccccccccccccccccccccccccccccccccccccccccccccccccccccccccccccccccccccccccccccccccccccccccccccccccccccccccccccccccccccccccccccccccccccccccccccccccccccccccccccccccccccccccccccccccccccccccccccccccccccccccccccccccccccccccccccccccccccccccccccccccccccccccccccccccccccccccccccccccccccccccccccccccccccccccccccccccccccccccccccccccccccccccccccccccccccccccccccccccccccccccccccccccccccccccccccccccccccccccccccccccccccccccccccccccccccccccccccccccccccccccccccccccccccccccccccccccccccccccccccccccccccccccccccccccccccccccccccccccccccccccccccccsccscccccccccccc" />
  </g>
</svg>
