<?xml version="1.0" encoding="UTF-8" standalone="no"?>
<!-- Created with Inkscape (http://www.inkscape.org/) -->

<svg
   xmlns:dc="http://purl.org/dc/elements/1.1/"
   xmlns:cc="http://creativecommons.org/ns#"
   xmlns:rdf="http://www.w3.org/1999/02/22-rdf-syntax-ns#"
   xmlns:svg="http://www.w3.org/2000/svg"
   xmlns="http://www.w3.org/2000/svg"
   xmlns:sodipodi="http://sodipodi.sourceforge.net/DTD/sodipodi-0.dtd"
   xmlns:inkscape="http://www.inkscape.org/namespaces/inkscape"
   width="600mm"
   height="300mm"
   viewBox="0 0 600 300"
   version="1.1"
   id="svg9826"
   inkscape:version="0.92.3 (2405546, 2018-03-11)"
   sodipodi:docname="MDF_cuts_3mm_kerf01_v2_HourFace_Furnier.svg">
  <defs
     id="defs9820" />
  <sodipodi:namedview
     id="base"
     pagecolor="#ffffff"
     bordercolor="#666666"
     borderopacity="1.0"
     inkscape:pageopacity="0.0"
     inkscape:pageshadow="2"
     inkscape:zoom="0.55468751"
     inkscape:cx="481.59669"
     inkscape:cy="796.17798"
     inkscape:document-units="mm"
     inkscape:current-layer="layer1"
     showgrid="false"
     inkscape:window-width="1280"
     inkscape:window-height="747"
     inkscape:window-x="-8"
     inkscape:window-y="-8"
     inkscape:window-maximized="1" />
  <metadata
     id="metadata9823">
    <rdf:RDF>
      <cc:Work
         rdf:about="">
        <dc:format>image/svg+xml</dc:format>
        <dc:type
           rdf:resource="http://purl.org/dc/dcmitype/StillImage" />
        <dc:title></dc:title>
      </cc:Work>
    </rdf:RDF>
  </metadata>
  <g
     inkscape:label="Ebene 1"
     inkscape:groupmode="layer"
     id="layer1"
     transform="translate(0,3)">
    <path
       style="fill:none;stroke:#ff0000;stroke-width:0.26458332"
       d="m 6.3326141,61.467114 0.229,-0.78901 0.236,-0.78499 0.244,-0.78399 0.251,-0.781 0.259,-0.77901 0.267,-0.776 0.273,-0.773 0.282,-0.771 0.288,-0.768 0.297,-0.76499 0.303,-0.76301 0.311,-0.75901 0.318,-0.757 0.3249999,-0.75298 0.333,-0.75001 0.34,-0.747 0.347,-0.743 0.354,-0.73999 0.362,-0.737 0.368,-0.733 0.376,-0.73001 0.382,-0.72599 0.39,-0.72202 0.396,-0.718 0.404,-0.71498 0.41,-0.71102 0.417,-0.70599 0.424,-0.703 0.431,-0.69799 0.437,-0.69501 0.444,-0.69001 0.451,-0.68498 0.457,-0.68201 0.464,-0.67599 0.47,-0.67302 0.477,-0.66799 0.483,-0.66299 0.49,-0.658 0.496,-0.65402 0.502,-0.649 0.508,-0.64399 0.515,-0.639 0.521,-0.63399 0.527,-0.629 0.533,-0.62402 0.539,-0.61899 0.545,-0.61301 0.55,-0.60899 0.557,-0.60299 0.562,-0.597 0.568,-0.59201 0.574,-0.587 0.58,-0.581 0.585,-0.575 0.59,-0.56999 0.596,-0.56401 0.602,-0.55801 0.607,-0.552 0.612,-0.547 0.617,-0.53998 0.623,-0.53502 0.627,-0.528 0.633,-0.523 0.638,-0.51599 0.642,-0.50999 0.648,-0.504 0.652,-0.498 0.657,-0.49101 0.662,-0.48501 0.667,-0.47898 0.671,-0.47201 0.676,-0.46599 0.68,-0.459 0.684,-0.45201 0.689,-0.44601 0.693,-0.439 0.698,-0.43299 0.701,-0.426 0.706,-0.419 0.709,-0.41201 0.714,-0.40499 0.717,-0.39799 0.721,-0.3920096 0.725,-0.38399 0.729,-0.37801 0.732,-0.36999 0.736,-0.36301 0.739,-0.357 0.742,-0.34901 0.746,-0.34198 0.75,-0.33401 0.752,-0.328 0.756,-0.31999 0.758,-0.313 0.762,-0.30501 0.764,-0.298 0.767,-0.29099 0.771,-0.283 0.772,-0.27601 0.776,-0.269 0.77799,-0.26099 0.78,-0.25302 0.783,-0.24598 0.785,-0.23802 0.78801,-0.23098 0.789,-0.22302 0.79199,-0.21598 0.79401,-0.20701 0.79599,-0.201 0.79701,-0.19201 0.8,-0.185 0.801,-0.17698 0.803,-0.16901 0.804,-0.16201 0.806,-0.15399 0.808,-0.14599 0.809,-0.13801 0.80999,-0.12999 0.81101,-0.123 0.813,-0.11502 0.813,-0.10599 0.815,-0.099 0.815,-0.092 0.817,-0.083 0.817,-0.075 0.81699,-0.068 0.81901,-0.06 0.819,-0.051 0.81899,-0.044 0.82,-0.036 0.82001,-0.028 0.82,-0.0201 0.82099,-0.0129 0.82001,-0.004 0.82501,0.004 0.824,0.0111 0.825,0.02 0.824,0.0279 0.82399,0.035 0.823,0.044 0.824,0.052 0.822,0.059 0.822,0.068 0.821,0.075 0.821,0.084 0.819,0.091 0.819,0.1 0.817,0.10702 0.816996,0.11499 0.815,0.12301 0.815,0.13099 0.812,0.13901 0.812,0.14698 0.81,0.15502 0.808,0.162 0.807,0.171 0.806,0.17799 0.803,0.186 0.802,0.19301 0.799,0.20199 0.798,0.20899 0.795,0.21701 0.794,0.225 0.791,0.23199 0.789,0.24 0.78701,0.24802 0.784,0.25498 0.782,0.263 0.77899,0.27001 0.776,0.27799 0.77401,0.28602 0.77099,0.293 0.768,0.29998 0.765,0.308 0.762,0.31602 0.758,0.322 0.756,0.32999 0.75301,0.337 0.74899,0.34499 0.746,0.352 0.742,0.35901 0.739,0.366 0.735,0.37399 0.732,0.38002 0.728,0.38799 0.724,0.3940096 0.72,0.40199 0.717,0.40801 0.71201,0.416 0.70799,0.42199 0.704,0.42899 0.7,0.43702 0.696,0.44198 0.691,0.45001 0.687,0.456 0.68301,0.463 0.678,0.469 0.67299,0.47601 0.669,0.483 0.664,0.489 0.65901,0.49498 0.65499,0.50202 0.649,0.508 0.64501,0.51398 0.63999,0.52102 0.634,0.527 0.63001,0.533 0.62399,0.53898 0.619,0.54502 0.613,0.55099 0.608,0.556 0.603,0.56301 0.598,0.56898 0.591,0.57402 0.587,0.57999 0.58,0.586 0.575,0.591 0.569,0.597 0.563,0.60201 0.558,0.60799 0.551,0.61301 0.54601,0.61899 0.53899,0.624 0.533,0.62801 0.528,0.635 0.521,0.639 0.515,0.64399 0.508,0.649 0.503,0.654 0.495,0.65899 0.49,0.664 0.483,0.66802 0.477,0.673 0.47,0.67799 0.463,0.68199 0.457,0.68601 0.45,0.69101 0.443,0.69599 0.437,0.699 0.43001,0.70401 0.423,0.708 0.41599,0.71199 0.40901,0.71601 0.402,0.71999 0.39499,0.724 0.38801,0.727 0.381,0.732 0.37399,0.73501 0.36701,0.738 0.36,0.742 0.35199,0.74599 0.34601,0.74901 0.33699,0.752 0.331,0.75599 0.323,0.75801 0.316,0.762 0.309,0.76499 0.301,0.768 0.293,0.76999 0.286,0.77402 0.279,0.77599 0.271,0.77899 0.264,0.78102 0.256,0.78399 0.248,0.786 0.241,0.78901 0.233,0.791 0.225,0.79399 0.217,0.79499 0.21,0.79701 0.20301,0.79999 0.19399,0.801 0.18701,0.80401 0.17799,0.805 0.171,0.806 0.164,0.80899 0.155,0.81002 0.147,0.811 0.14,0.81299 0.132,0.81399 0.12301,0.81502 0.11599,0.81698 0.108,0.81701 0.1,0.81899 0.092,0.81902 0.085,0.821 0.076,0.821 0.068,0.82198 0.06,0.82201 0.053,0.82301 0.044,0.82399 0.036,0.82299 0.028,0.825 0.021,0.82402 0.012,0.82499 0.004,0.824 -0.003,0.82499 -0.012,0.82402 -0.02,0.824999 -0.027,0.82399 -0.036,0.82399 -0.043,0.82302 -0.052,0.82399 -0.06,0.82201 -0.067,0.82201 -0.076,0.821 -0.083,0.82098 -0.092,0.81902 -0.099,0.81899 -0.107,0.81701 -0.11601,0.817 -0.123,0.815 -0.131,0.81499 -0.13899,0.81201 -0.146,0.811977 -0.15501,0.81002 -0.163,0.80799 -0.17,0.807 -0.178,0.806 -0.186,0.80301 -0.194,0.80198 -0.201,0.79902 -0.21,0.79798 -0.21699,0.79502 -0.22401,0.79399 -0.233,0.791 -0.24,0.78901 -0.247,0.787 -0.256,0.78399 -0.26199,0.782 -0.27101,0.77899 -0.27799,0.77602 -0.28501,0.77399 -0.293,0.77099 -0.301,0.76801 -0.30799,0.76499 -0.31501,0.762 -0.323,0.758 -0.33,0.756 -0.337,0.753 -0.34399,0.74901 -0.35201,0.74599 -0.359,0.742 -0.367,0.73901 -0.373,0.73501 -0.38,0.732 -0.388,0.728 -0.395,0.72398 -0.401,0.72001 -0.409,0.71699 -0.415,0.71202 -0.423,0.708 -0.429,0.70398 -0.436,0.70001 -0.443,0.69601 -0.449,0.69099 -0.456,0.68701 -0.463,0.683 -0.46999,0.67799 -0.47601,0.673 -0.482,0.669 -0.489,0.664 -0.496,0.65899 -0.501,0.65501 -0.508,0.64899 -0.515,0.645 -0.52,0.64 -0.527,0.634 -0.533,0.63002 -0.539,0.624 -0.545,0.61899 -0.551,0.61301 -0.55699,0.60799 -0.56301,0.60301 -0.568,0.59799 -0.575,0.591 -0.57999,0.587 -0.58501,0.57999 -0.592,0.57502 -0.596,0.56899 -0.603,0.56301 -0.608,0.558 -0.61299,0.551 -0.61801,0.54599 -0.624,0.53901 -0.629,0.533 -0.634,0.52798 -0.639,0.52102 -0.644,0.51498 -0.649,0.508 -0.654,0.503 -0.659,0.49501 -0.66399,0.49001 -0.66801,0.483 -0.673,0.47699 -0.678,0.46999 -0.682,0.463 -0.68699,0.45701 -0.69101,0.44998 -0.695,0.44302 -0.7,0.43698 -0.703,0.43 -0.708,0.42302 -0.712,0.416 -0.716,0.409 -0.72,0.402 -0.724,0.395 -0.728,0.38799 -0.731,0.381 -0.735,0.37401 -0.739,0.367 -0.742,0.36 -0.745,0.352 -0.749,0.34599 -0.753,0.337 -0.755,0.331 -0.759,0.323 -0.761,0.31599 -0.765,0.30901 -0.768,0.30099 -0.77099,0.293 -0.77301,0.28702 -0.776,0.278 -0.779,0.27098 -0.781,0.264 -0.78399,0.25601 -0.78701,0.248 -0.789,0.24101 -0.791,0.23299 -0.793,0.225 -0.795,0.21799 -0.798,0.20902 -0.799,0.20299 -0.802,0.19399 -0.80299,0.18701 -0.805,0.17801 -0.80701,0.171 -0.808,0.16399 -0.81,0.15499 -0.811,0.14701 -0.813,0.13999 -0.814,0.132 -0.816,0.123 -0.815986,0.11602 -0.81801,0.10798 -0.818,0.10001 -0.82,0.092 -0.82,0.085 -0.821,0.076 -0.822,0.068 -0.822,0.06 -0.82299,0.053 -0.82401,0.044 -0.824,0.036 -0.824,0.028 -0.824,0.0209 -0.825,0.012 -0.825,0.004 -0.82199,-0.003 -0.822,-0.0119 -0.822,-0.019 -0.821,-0.028 -0.82201,-0.035 -0.82099,-0.044 -0.82,-0.051 -0.82,-0.059 -0.81901,-0.067 -0.81899,-0.075 -0.818,-0.083 -0.81701,-0.091 -0.81599,-0.099 -0.81501,-0.10602 -0.81399,-0.11499 -0.81301,-0.122 -0.81199,-0.13099 -0.81,-0.13801 -0.81,-0.146 -0.80701,-0.15301 -0.806,-0.162 -0.805,-0.16899 -0.803,-0.17701 -0.80099,-0.18499 -0.799,-0.19299 -0.79701,-0.2 -0.79599,-0.20801 -0.793,-0.215 -0.791,-0.224 -0.78901,-0.23101 -0.787,-0.23799 -0.784,-0.24601 -0.782,-0.254 -0.77999,-0.26099 -0.777,-0.269 -0.774,-0.27601 -0.771,-0.28398 -0.769,-0.29101 -0.766,-0.29901 -0.763,-0.30599 -0.76,-0.313 -0.757,-0.32099 -0.754,-0.32801 -0.751,-0.33499 -0.747,-0.343 -0.744,-0.35002 -0.741,-0.356 -0.737,-0.36499 -0.733,-0.371 -0.73,-0.37801 -0.726,-0.38499 -0.723,-0.39201 -0.719,-0.4 -0.714,-0.406 -0.711,-0.41299 -0.707,-0.42 -0.703,-0.426 -0.698,-0.434 -0.694,-0.44 -0.69,-0.44699 -0.686,-0.454 -0.681,-0.46 -0.677,-0.466 -0.672,-0.474 -0.668,-0.47901 -0.663,-0.48699 -0.658,-0.49199 -0.654,-0.499 -0.648,-0.50501 -0.644,-0.512 -0.639,-0.517 -0.633,-0.524 -0.629,-0.52999 -0.623,-0.53602 -0.618,-0.542 -0.613,-0.547 -0.608,-0.55398 -0.602,-0.56002 -0.597,-0.56499 -0.591,-0.571 -0.586,-0.577 -0.58,-0.58301 -0.575,-0.58798 -0.569,-0.59302 -0.563,-0.59899 -0.557,-0.60499 -0.551,-0.61 -0.546,-0.615 -0.539,-0.62002 -0.533,-0.62598 -0.528,-0.63 -0.521,-0.636 -0.515,-0.64101 -0.509,-0.64601 -0.503,-0.65 -0.496,-0.65598 -0.49,-0.66 -0.483,-0.66501 -0.477,-0.66899 -0.471,-0.674 -0.464,-0.679 -0.457,-0.683 -0.451,-0.68702 -0.444,-0.69199 -0.438,-0.69601 -0.43,-0.70099 -0.424,-0.704 -0.417,-0.708 -0.411,-0.713 -0.403,-0.71599 -0.396,-0.72001 -0.39,-0.724 -0.382,-0.72801 -0.375,-0.73199 -0.369,-0.73499 -0.361,-0.738 -0.354,-0.742 -0.346,-0.74602 -0.34,-0.748 -0.332,-0.752 -0.3249999,-0.75499 -0.318,-0.75901 -0.31,-0.76099 -0.303,-0.76399 -0.296,-0.767 -0.288,-0.77001 -0.281,-0.77301 -0.273,-0.77499 -0.266,-0.77801 -0.258,-0.781 -0.25,-0.78298 -0.243,-0.78502 -0.236,-0.78798 -0.228,-0.79002 -0.22,-0.79198 -0.212,-0.79401 -0.205,-0.796 -0.197,-0.79801 -0.189,-0.79999 -0.182,-0.80201 -0.174,-0.80399 -0.166,-0.80499 -0.158,-0.80701 -0.151,-0.808007 -0.143,-0.80899 -0.134,-0.811 -0.127,-0.81301 -0.12,-0.81299 -0.111,-0.81499 -0.103,-0.815 -0.096,-0.81701 -0.087,-0.817 -0.08,-0.81799 -0.072,-0.81902 -0.064,-0.82 -0.056,-0.82 -0.048,-0.821 -0.04,-0.821 -0.032,-0.82101 -0.024,-0.82198 -0.016,-0.821999 -0.009,-0.82201 v -0.82201 l 0.008,-0.82198 0.015,-0.82201 0.024,-0.82201 0.031,-0.82198 0.039,-0.821 0.048,-0.82002 0.055,-0.82098 0.063,-0.81901 0.071,-0.819 0.079,-0.81899 0.087,-0.817 0.095,-0.81701 0.102,-0.815 0.111,-0.81499 0.118,-0.81402 0.127,-0.81198 0.134,-0.811 0.142,-0.81 0.149,-0.80801 0.158,-0.807 0.165,-0.805 0.007,-0.0161 0.011,-0.0129 0.015,-0.008 0.016,-0.003 h 9.9499899 v -4.90001 H 6.1596041 l -0.018,-0.003 -0.015,-0.01 -0.011,-0.014 -0.005,-0.018 0.001,-0.018 z"
       id="path16995" />
    <path
       style="fill:none;stroke:#060000;stroke-width:0.26458332;stroke-opacity:1"
       d="m 106.92471,84.770123 c 0,-10.383737 -8.413323,-18.803739 -18.797082,-18.81196 -10.383759,0.0083 -18.797084,8.428223 -18.797084,18.81196 0,10.38376 8.413325,18.803757 18.797084,18.811977 10.383759,-0.008 18.797082,-8.428217 18.797082,-18.811977 z"
       id="path2143"
       inkscape:connector-curvature="0" />
  </g>
</svg>
