<?xml version="1.0" encoding="UTF-8" standalone="no"?>
<!-- Created with Inkscape (http://www.inkscape.org/) -->

<svg
   xmlns:dc="http://purl.org/dc/elements/1.1/"
   xmlns:cc="http://creativecommons.org/ns#"
   xmlns:rdf="http://www.w3.org/1999/02/22-rdf-syntax-ns#"
   xmlns:svg="http://www.w3.org/2000/svg"
   xmlns="http://www.w3.org/2000/svg"
   xmlns:sodipodi="http://sodipodi.sourceforge.net/DTD/sodipodi-0.dtd"
   xmlns:inkscape="http://www.inkscape.org/namespaces/inkscape"
   width="600mm"
   height="300mm"
   viewBox="0 0 600 300"
   version="1.1"
   id="svg9826"
   inkscape:version="0.92.3 (2405546, 2018-03-11)"
   sodipodi:docname="MDF_cuts_3mm_kerf01_v2_Supports.svg">
  <defs
     id="defs9820" />
  <sodipodi:namedview
     id="base"
     pagecolor="#ffffff"
     bordercolor="#666666"
     borderopacity="1.0"
     inkscape:pageopacity="0.0"
     inkscape:pageshadow="2"
     inkscape:zoom="1.109375"
     inkscape:cx="159.78303"
     inkscape:cy="967.54261"
     inkscape:document-units="mm"
     inkscape:current-layer="layer1"
     showgrid="false"
     inkscape:window-width="1280"
     inkscape:window-height="747"
     inkscape:window-x="-8"
     inkscape:window-y="-8"
     inkscape:window-maximized="1" />
  <metadata
     id="metadata9823">
    <rdf:RDF>
      <cc:Work
         rdf:about="">
        <dc:format>image/svg+xml</dc:format>
        <dc:type
           rdf:resource="http://purl.org/dc/dcmitype/StillImage" />
        <dc:title />
      </cc:Work>
    </rdf:RDF>
  </metadata>
  <g
     inkscape:label="Ebene 1"
     inkscape:groupmode="layer"
     id="layer1"
     transform="translate(0,3)">
    <path
       id="path2209"
       style="fill:none;stroke:#ff0000;stroke-width:0.26458332"
       d="m 5.5351237,-1.2680391 h 4.9999903 l 0.019,0.004 0.016,0.0111 0.011,0.016 0.004,0.019 v 4.250001 h 2.45 l 0.019,0.004 0.016,0.011 0.011,0.016 0.004,0.019 V 23.782052 l -0.004,0.019 -0.011,0.0161 -0.016,0.011 -0.019,0.004 h -5.9999803 -4 l -0.019,-0.004 -0.016,-0.0111 -0.011,-0.016 -0.004,-0.0189 V 3.0821619 l 0.004,-0.019 0.011,-0.0161 0.016,-0.011 0.019,-0.004 h 2.44999 v -4.250001 l 0.004,-0.019 0.011,-0.0161 0.016,-0.011 z"
       inkscape:connector-curvature="0"
       sodipodi:nodetypes="cccccccccccccccccccccccccccccccccc" />
    <path
       id="path2275"
       style="fill:none;stroke:#ff0000;stroke-width:0.26458332"
       d="m 18.921839,-1.3732961 h 4.99999 l 0.019,0.004 0.016,0.0111 0.011,0.016 0.004,0.019 v 4.25 h 2.45 l 0.019,0.004 0.016,0.0111 0.011,0.016 0.004,0.019 V 23.676894 l -0.004,0.019 -0.011,0.0161 -0.016,0.011 -0.019,0.004 -5.99998,10e-6 h -4 l -0.019,-0.004 -0.016,-0.011 -0.011,-0.016 -0.004,-0.019 V 2.9770039 l 0.004,-0.019 0.011,-0.0161 0.016,-0.011 0.019,-0.004 h 2.44999 v -4.25 l 0.004,-0.019 0.011,-0.0161 0.016,-0.011 z"
       inkscape:connector-curvature="0"
       sodipodi:nodetypes="cccccccccccccccccccccccccccccccccc" />
    <path
       sodipodi:nodetypes="cccccccccccccccccccccccccccccccccc"
       inkscape:connector-curvature="0"
       d="m 32.962354,-1.2680391 h 4.99999 l 0.019,0.004 0.016,0.0111 0.011,0.016 0.004,0.019 v 4.250001 h 2.45 l 0.019,0.004 0.016,0.011 0.011,0.016 0.004,0.019 V 23.782052 l -0.004,0.019 -0.011,0.0161 -0.016,0.011 -0.019,0.004 h -5.99998 -4 l -0.019,-0.004 -0.016,-0.0111 -0.011,-0.016 -0.004,-0.0189 V 3.0821619 l 0.004,-0.019 0.011,-0.0161 0.016,-0.011 0.019,-0.004 h 2.44999 v -4.250001 l 0.004,-0.019 0.011,-0.0161 0.016,-0.011 z"
       style="fill:none;stroke:#ff0000;stroke-width:0.26458332"
       id="path1528" />
    <path
       sodipodi:nodetypes="cccccccccccccccccccccccccccccccccc"
       inkscape:connector-curvature="0"
       d="m 46.349069,-1.3732961 h 4.99999 l 0.019,0.004 0.016,0.0111 0.011,0.016 0.004,0.019 v 4.25 h 2.45 l 0.019,0.004 0.016,0.0111 0.011,0.016 0.004,0.019 V 23.676894 l -0.004,0.019 -0.011,0.0161 -0.016,0.011 -0.019,0.004 -5.99998,10e-6 h -4 l -0.019,-0.004 -0.016,-0.011 -0.011,-0.016 -0.004,-0.019 V 2.9770039 l 0.004,-0.019 0.011,-0.0161 0.016,-0.011 0.019,-0.004 h 2.44999 v -4.25 l 0.004,-0.019 0.011,-0.0161 0.016,-0.011 z"
       style="fill:none;stroke:#ff0000;stroke-width:0.26458332"
       id="path1530" />
  </g>
</svg>
