<?xml version="1.0" encoding="UTF-8" standalone="no"?>
<!-- Created with Inkscape (http://www.inkscape.org/) -->

<svg
   xmlns:dc="http://purl.org/dc/elements/1.1/"
   xmlns:cc="http://creativecommons.org/ns#"
   xmlns:rdf="http://www.w3.org/1999/02/22-rdf-syntax-ns#"
   xmlns:svg="http://www.w3.org/2000/svg"
   xmlns="http://www.w3.org/2000/svg"
   xmlns:sodipodi="http://sodipodi.sourceforge.net/DTD/sodipodi-0.dtd"
   xmlns:inkscape="http://www.inkscape.org/namespaces/inkscape"
   width="600mm"
   height="300mm"
   viewBox="0 0 600 300"
   version="1.1"
   id="svg4265"
   inkscape:version="0.92.3 (2405546, 2018-03-11)"
   sodipodi:docname="MDF_cuts_3mm_kerf01_v2_StandFace.svg">
  <defs
     id="defs4259" />
  <sodipodi:namedview
     id="base"
     pagecolor="#ffffff"
     bordercolor="#666666"
     borderopacity="1.0"
     inkscape:pageopacity="0.0"
     inkscape:pageshadow="2"
     inkscape:zoom="0.7"
     inkscape:cx="536.48765"
     inkscape:cy="745.56244"
     inkscape:document-units="mm"
     inkscape:current-layer="layer1"
     showgrid="false"
     inkscape:window-width="1920"
     inkscape:window-height="1001"
     inkscape:window-x="-9"
     inkscape:window-y="-9"
     inkscape:window-maximized="1" />
  <metadata
     id="metadata4262">
    <rdf:RDF>
      <cc:Work
         rdf:about="">
        <dc:format>image/svg+xml</dc:format>
        <dc:type
           rdf:resource="http://purl.org/dc/dcmitype/StillImage" />
        <dc:title></dc:title>
      </cc:Work>
    </rdf:RDF>
  </metadata>
  <g
     inkscape:label="Ebene 1"
     inkscape:groupmode="layer"
     id="layer1"
     transform="translate(0,3)">
    <path
       id="path2820"
       style="fill:none;stroke:#ff0000;stroke-width:0.26458332"
       d="m 97.958657,195.37257 -0.879998,-0.018 -0.880999,-0.0259 -0.88,-0.0341 -0.88,-0.042 -0.879,-0.05 -0.879,-0.058 -0.879,-0.065 -0.877,-0.074 -0.877,-0.082 -0.877002,-0.089 -0.874998,-0.098 -0.875001,-0.10499 -0.873,-0.11401 -0.873001,-0.12099 -0.870998,-0.12901 -0.87,-0.137 -0.869,-0.14399 -0.867,-0.15301 -0.866,-0.15999 -0.865,-0.16902 -0.863002,-0.176 -0.861999,-0.18298 -0.858999,-0.19201 -0.858001,-0.199 -0.856001,-0.20701 -0.854999,-0.215 -0.852,-0.22299 -0.850001,-0.23 -0.848,-0.23799 -0.846,-0.24501 -0.844,-0.25299 -0.840999,-0.26101 -0.838999,-0.268 -0.837001,-0.27599 -0.834001,-0.284 -0.830998,-0.29101 -0.829001,-0.298 -0.826,-0.306 -0.823,-0.313 -0.819999,-0.32099 -0.818002,-0.328 -0.813998,-0.336 -0.811001,-0.343 -0.809001,-0.34999 -0.805,-0.35701 -0.800999,-0.36502 -0.799,-0.372 -0.795001,-0.37899 -0.791999,-0.38701 -0.788,-0.39298 -0.784,-0.401 -0.781,-0.40701 -0.776999,-0.415 -0.773002,-0.42101 -0.769998,-0.42899 -0.766,-0.43601 -0.761,-0.44199 -0.758,-0.44899 -0.753001,-0.45601 -0.749999,-0.463 -0.745,-0.47 -0.741,-0.47599 -0.736,-0.48299 -0.733001,-0.49001 -0.727001,-0.49602 -0.723998,-0.503 -0.718,-0.50898 -0.714002,-0.51601 -0.709999,-0.522 -0.704,-0.52901 -0.700001,-0.53498 -0.694999,-0.541 -0.689999,-0.548 -0.685001,-0.55301 -0.68,-0.55999 -0.675,-0.566 -0.669999,-0.572 -0.664001,-0.57801 -0.660001,-0.58399 -0.653999,-0.59002 -0.647999,-0.596 -0.644002,-0.60198 -0.637,-0.607 -0.633,-0.614 -0.626999,-0.61801 -0.621,-0.625 -0.615001,-0.63 -0.609999,-0.636 -0.603998,-0.64101 -0.598,-0.64598 -0.592,-0.65201 -0.587002,-0.65799 -0.579999,-0.66202 -0.575,-0.66799 -0.568,-0.673 -0.563001,-0.67799 -0.555998,-0.683 -0.55,-0.68802 -0.543002,-0.693 -0.537999,-0.69799 -0.531,-0.702 -0.524999,-0.70799 -0.518001,-0.712 -0.512001,-0.71702 -0.505,-0.72099 -0.498998,-0.72599 -0.493001,-0.73001 -0.485,-0.73499 -0.478999,-0.739 -0.473001,-0.74401 -0.465,-0.74801 -0.458999,-0.75099 -0.452001,-0.75599 -0.445,-0.76002 -0.438999,-0.76499 -0.431001,-0.767 -0.424,-0.772 -0.418,-0.776 -0.410001,-0.77901 -0.404,-0.78298 -0.395999,-0.787 -0.389001,-0.79 -0.381998,-0.79401 -0.375001,-0.79701 -0.367999,-0.79999 -0.36,-0.80399 -0.3530023,-0.80701 -0.345998,-0.80999 -0.338,-0.81301 -0.331001,-0.81701 -0.323999,-0.81899 -0.316002,-0.82201 -0.308999,-0.825 -0.302001,-0.82698 -0.293999,-0.831 -0.285999,-0.83301 -0.2790007,-0.835 -0.270999,-0.83799 -0.264001,-0.84101 -0.256001,-0.84201 -0.248999,-0.845 -0.241001,-0.84799 -0.233,-0.84899 -0.225999,-0.85101 -0.218001,-0.85399 -0.21,-0.855 -0.201999,-0.85802 -0.195,-0.859 -0.187,-0.86 -0.179001,-0.86299 -0.171,-0.864 -0.163999,-0.865 -0.154999,-0.86699 -0.148,-0.86902 -0.140001,-0.869 -0.132001,-0.87098 -0.125,-0.87201 -0.115998,-0.873 -0.109001,-0.87399 -0.1,-0.87501 -0.093,-0.87601 -0.085001,-0.87698 -0.077,-0.87702 -0.069002,-0.879 -0.061002,-0.87799 -0.053001,-0.879 -0.045001,-0.88 -0.037,-0.88001 -0.029999,-0.88098 0.004,-0.019 0.011004,-0.0169 0.016001,-0.0111 0.018994,-0.004 5.2610012,1e-5 v -5.500014 l -5.2610017,6e-6 -0.019,-0.004 -0.016004,-0.01106 -0.011001,-0.01691 -0.00399,-0.01905 0.03,-0.881988 0.036999,-0.881989 0.045,-0.881009 0.054001,-0.88101 0.061001,-0.879977 0.069,-0.878999 0.076999,-0.879001 0.084998,-0.878022 0.093001,-0.877993 0.1010005,-0.876009 0.109,-0.875983 0.116999,-0.873998 0.123999,-0.873998 0.133001,-0.872014 0.139999,-0.871008 0.149,-0.870003 0.156001,-0.867992 0.164,-0.866987 0.172,-0.865002 0.179001,-0.863997 0.188,-0.862012 0.195,-0.861007 0.202999,-0.857991 0.211,-0.856986 0.219001,-0.855001 0.225999,-0.853016 0.234,-0.850001 0.241001,-0.848995 0.25,-0.846005 0.257,-0.843994 0.263999,-0.84201 0.271999,-0.838994 0.2800007,-0.837009 0.287999,-0.833993 0.294002,-0.831983 0.302999,-0.828013 0.310001,-0.826003 0.317,-0.823992 0.324999,-0.819997 0.332001,-0.817006 0.339,-0.814996 0.3469988,-0.811001 0.353999,-0.808011 0.362,-0.804995 0.369001,-0.801 0.376,-0.798988 0.383,-0.794015 0.390001,-0.790998 0.398,-0.788009 0.404,-0.783987 0.411998,-0.779991 0.419,-0.777002 0.426,-0.773007 0.432001,-0.769011 0.44,-0.76499 0.446,-0.760995 0.454001,-0.755994 0.459999,-0.753004 0.467,-0.749009 0.473999,-0.744008 0.480002,-0.739987 0.488,-0.735991 0.492998,-0.731018 0.501002,-0.72599 0.507,-0.721995 0.513,-0.718 0.519999,-0.712999 0.526,-0.707998 0.533,-0.702998 0.538999,-0.699003 0.545002,-0.693023 0.552,-0.688975 0.557998,-0.683022 0.564002,-0.679 0.57,-0.672994 0.576,-0.667994 0.581999,-0.662993 0.587999,-0.658019 0.595001,-0.651986 0.599,-0.647012 0.605998,-0.641985 0.612,-0.636005 0.617001,-0.63 0.623001,-0.624998 0.628999,-0.618993 0.634,-0.613013 0.639,-0.607986 0.645999,-0.602008 0.650002,-0.596 0.656,-0.589994 0.660998,-0.584015 0.667001,-0.578009 0.670999,-0.571976 0.677,-0.566023 0.682001,-0.559991 0.687001,-0.553006 0.691999,-0.548005 0.697,-0.540993 0.702001,-0.534987 0.705998,-0.528002 0.712002,-0.521997 0.714999,-0.516016 0.721,-0.508979 0.725001,-0.502021 0.729999,-0.495988 0.733999,-0.490008 0.739002,-0.481992 0.743,-0.476011 0.746999,-0.469001 0.751001,-0.462994 0.755999,-0.455004 0.759,-0.448998 0.764,-0.441987 0.768001,-0.435001 0.770998,-0.428016 0.775002,-0.420979 0.779999,-0.41402 0.782,-0.406982 0.787001,-0.399997 0.789998,-0.392007 0.794001,-0.3859999 0.796999,-0.378011 0.8,-0.370998 0.804,-0.363988 0.807,-0.357002 0.810001,-0.349012 0.813001,-0.342 0.816999,-0.334989 0.818999,-0.326999 0.822002,-0.319008 0.826,-0.3130024 0.827998,-0.304985 0.830001,-0.297021 0.834001,-0.289984 0.835998,-0.282019 0.838002,-0.273976 0.840999,-0.268023 0.843,-0.259001 0.846,-0.251989 0.848,-0.243999 0.85,-0.236008 0.852001,-0.228997 0.853998,-0.221006 0.856001,-0.213995 0.857999,-0.204999 0.860002,-0.197988 0.860999,-0.189997 0.863999,-0.182007 0.864,-0.17399 0.867,-0.167005 0.868,-0.159015 0.869,-0.150998 0.871,-0.143007 0.871001,-0.13499 0.874,-0.127 0.874001,-0.11901 0.874999,-0.111998 0.876006,-0.10299446 0.877003,-0.095983 0.878001,-0.086998 0.879001,-0.0800075 0.879,-0.0719915 0.88,-0.064003 0.881,-0.05501 0.881,-0.0479961 0.881,-0.0400001 0.882,-0.0319915 0.881999,-0.024038 0.882,-0.0160325 0.882,-0.007879 0.882,-4.55e-5 0.883005,0.007945 0.882,0.016119 0.882,0.0239725 0.881,0.031948 0.882,0.0400015 0.881,0.0480001 0.88,0.0550061 0.88,0.064 0.88,0.071993 0.878,0.0800115 0.878,0.0869975 0.877,0.095988 0.87601,0.10300246 0.87599,0.111998 0.874,0.11901 0.873,0.127 0.872,0.13499 0.87,0.143007 0.87,0.150998 0.868,0.159015 0.866,0.167005 0.865,0.17399 0.863,0.182007 0.862,0.189997 0.86,0.197988 0.858,0.204999 0.856,0.213995 0.854,0.221006 0.852,0.228997 0.85001,0.236008 0.848,0.243999 0.845,0.251989 0.84399,0.259001 0.84,0.268023 0.839,0.273976 0.836,0.282019 0.83301,0.289984 0.83099,0.297021 0.828,0.304985 0.825,0.3130024 0.822,0.319008 0.82,0.326999 0.816,0.334989 0.813,0.342 0.811,0.349012 0.807,0.357002 0.803,0.363988 0.801,0.370998 0.797,0.378011 0.793,0.3859999 0.791,0.392007 0.786,0.399997 0.783,0.406982 0.779,0.41402 0.775,0.420979 0.772,0.428016 0.767,0.435001 0.764,0.441987 0.76,0.448998 0.755,0.455004 0.75201,0.462994 0.74699,0.469001 0.743,0.476011 0.738,0.481992 0.73401,0.490008 0.72999,0.495988 0.725,0.502021 0.721,0.508979 0.716,0.516016 0.711,0.521997 0.707,0.528002 0.701,0.534987 0.697,0.540993 0.692,0.548005 0.687,0.553006 0.68201,0.559991 0.677,0.566023 0.67199,0.571976 0.666,0.578009 0.661,0.584015 0.656,0.589994 0.651,0.596 0.645,0.602008 0.64,0.607986 0.634,0.613013 0.628,0.618993 0.62301,0.624998 0.61799,0.63 0.61101,0.636005 0.60599,0.641985 0.60001,0.647012 0.59399,0.651986 0.588,0.658019 0.582,0.662993 0.576,0.667994 0.571,0.672994 0.563,0.679 0.558,0.683022 0.552,0.688975 0.545,0.693023 0.539,0.699003 0.53301,0.702998 0.52599,0.707998 0.52,0.712999 0.514,0.718 0.507,0.721995 0.5,0.72599 0.494,0.731018 0.487,0.735991 0.481,0.739987 0.473,0.744008 0.467,0.749009 0.461,0.753004 0.453,0.755994 0.44701,0.760995 0.43899,0.76499 0.433,0.769011 0.426,0.773007 0.41801,0.777002 0.41199,0.779991 0.405,0.783987 0.397,0.788009 0.391,0.790998 0.38301,0.794015 0.37599,0.798988 0.368,0.801 0.362,0.804995 0.35401,0.808011 0.34699,0.811001 0.34,0.814996 0.33201,0.817006 0.32399,0.819997 0.318,0.823992 0.31001,0.826003 0.30199,0.828013 0.295,0.831983 0.287,0.833993 0.28001,0.837009 0.27199,0.838994 0.265,0.84201 0.257,0.843994 0.249,0.846005 0.242,0.848995 0.234,0.850001 0.226,0.853016 0.218,0.855001 0.211,0.856986 0.203,0.857991 0.196,0.861007 0.187,0.862012 0.18001,0.863997 0.172,0.865002 0.16399,0.866987 0.156,0.867992 0.148,0.870003 0.141,0.871008 0.132,0.872014 0.12501,0.873998 0.11699,0.873998 0.108,0.875983 0.101,0.876009 0.093,0.877993 0.085,0.87802 0.077,0.878999 0.07,0.878999 0.061,0.879977 0.053,0.88101 0.045,0.881009 0.038,0.881989 0.029,0.882015 -0.003,0.01902 -0.011,0.01693 -0.017,0.01109 -0.019,0.0039 h -5.26101 v 5.50001 h 5.261 l 0.019,0.004 0.017,0.011 0.011,0.0169 0.003,0.019 -0.029,0.879 -0.037,0.87699 -0.045,0.87802 -0.053,0.87698 -0.061,0.87601 -0.069,0.87599 -0.076,0.876 -0.085,0.874 -0.092,0.874 -0.1,0.87299 -0.108,0.87202 -0.116,0.87101 -0.124,0.86899 -0.131,0.869 -0.14,0.86799 -0.147,0.86601 -0.155,0.865 -0.163,0.86299 -0.17,0.86199 -0.179,0.86 -0.186,0.85902 -0.193,0.85699 -0.202,0.855 -0.209,0.85299 -0.217,0.85201 -0.22399,0.849 -0.233,0.84801 -0.23901,0.845 -0.24799,0.84299 -0.255,0.84101 -0.26201,0.83798 -0.27,0.83601 -0.278,0.83399 -0.285,0.83101 -0.293,0.82801 -0.3,0.826 -0.307,0.82299 -0.315,0.81999 -0.322,0.81802 -0.32999,0.81399 -0.33601,0.812 -0.345,0.80801 -0.351,0.805 -0.359,0.802 -0.36599,0.79899 -0.37301,0.796 -0.38,0.79201 -0.387,0.788 -0.395,0.785 -0.401,0.782 -0.408,0.77798 -0.416,0.77401 -0.422,0.76999 -0.43,0.767 -0.436,0.76301 -0.443,0.758 -0.45,0.75499 -0.45699,0.75002 -0.46301,0.74699 -0.47,0.742 -0.477,0.738 -0.484,0.73401 -0.49,0.72898 -0.496,0.72501 -0.503,0.72001 -0.51,0.71599 -0.516,0.71099 -0.522,0.70702 -0.529,0.70099 -0.535,0.69699 -0.541,0.69202 -0.547,0.68699 -0.554,0.68299 -0.56,0.67702 -0.56599,0.67199 -0.571,0.66701 -0.57801,0.66199 -0.58399,0.65701 -0.59001,0.65098 -0.595,0.64601 -0.602,0.64101 -0.60699,0.635 -0.612,0.62899 -0.61901,0.62399 -0.624,0.61902 -0.629,0.61299 -0.635,0.60701 -0.641,0.602 -0.646,0.595 -0.651,0.58999 -0.65599,0.58399 -0.66201,0.57801 -0.667,0.572 -0.672,0.566 -0.677,0.55999 -0.682,0.55401 -0.687,0.547 -0.692,0.542 -0.697,0.53501 -0.702,0.52898 -0.706,0.522 -0.711,0.51602 -0.716,0.50998 -0.72,0.503 -0.724,0.49702 -0.73,0.48998 -0.73299,0.48401 -0.73801,0.47701 -0.74199,0.46998 -0.74601,0.464 -0.751,0.45601 -0.755,0.45 -0.758,0.444 -0.763,0.43601 -0.766,0.43 -0.77,0.42198 -0.774,0.41601 -0.77799,0.40899 -0.782,0.401 -0.78501,0.395 -0.788,0.38701 -0.792,0.381 -0.796,0.37301 -0.79799,0.36599 -0.802,0.35899 -0.805,0.352 -0.80901,0.34401 -0.811,0.337 -0.814,0.32999 -0.818,0.322 -0.82,0.31501 -0.823,0.308 -0.826,0.30001 -0.828,0.293 -0.831,0.28499 -0.83399,0.27799 -0.83601,0.27001 -0.838,0.263 -0.841,0.255 -0.843,0.24699 -0.845,0.24001 -0.847,0.23301 -0.85,0.224 -0.851,0.21699 -0.853,0.20999 -0.856,0.20101 -0.856,0.19399 -0.859,0.18701 -0.86,0.17801 -0.862,0.171 -0.864,0.16298 -0.864,0.15502 -0.867,0.14698 -0.867,0.14002 -0.869,0.132 -0.869,0.12398 -0.87099,0.11602 -0.87201,0.108 -0.873,0.1 -0.874,0.093 -0.874,0.085 -0.876,0.076 -0.875,0.069 -0.877,0.061 -0.877,0.053 -0.87699,0.045 -0.87801,0.038 -0.87799,0.029 -0.87901,0.022 -0.878,0.013 -0.879005,0.006 -0.878,-0.002 z m 0.119002,-7.48695 v 4.9 h 2.900001 v -4.9 h -2.513001 z m 3.149171,-31.00673 c -1.275711,-2.26529 -4.674056,-0.35183 -3.398341,1.91346 1.275715,2.26529 4.674061,0.35183 3.398341,-1.91346 z M 41.477654,97.835596 c -0.0028,-2.597237 -3.897239,-2.597237 -3.899998,0 0.0028,2.597234 3.897239,2.597234 3.899998,0 z M 78.600235,48.604235 c 1.485728,-1.230658 -0.354209,-3.461589 -1.845159,-2.237264 -1.485728,1.230658 0.354209,3.461589 1.845159,2.237264 z M 98.077655,7.6856031 v 0.100012 h 2.900005 V 2.8856107 H 98.077655 V 7.1976051 Z M 102.57766,28.8356 V 16.835609 H 96.477656 V 28.8356 h 5.000004 z m -4.749175,9.956747 c 1.275828,2.264903 4.674175,0.351437 3.398345,-1.913466 -1.275828,-2.264903 -4.674173,-0.351437 -3.398345,1.913466 z m 24.667825,7.770681 c -1.23043,-1.488032 -3.4639,0.353962 -2.23729,1.845151 1.23043,1.488032 3.4639,-0.353962 2.23729,-1.845151 z m -2.04125,20.503964 c -1.48274,1.230971 0.35458,3.458619 1.84521,2.237211 1.48274,-1.230971 -0.35458,-3.458619 -1.84521,-2.237211 z m -42.727406,-1.931372 0.151,0.0069 0.151,0.01303 0.149998,0.02097 0.148,0.02904 0.147002,0.03601 0.145,0.04299 0.142999,0.05001 0.139999,0.058 0.137001,0.064 0.134001,0.07099 0.129998,0.07702 0.126,0.08398 0.121002,0.09001 0.116999,0.09599 0.113001,0.101019 0.107,0.106997 0.100999,0.113004 0.096,0.116998 0.09,0.120994 0.084,0.125995 0.077,0.130016 0.071,0.133985 0.064,0.137002 0.058,0.139991 0.05,0.143007 0.043,0.144992 0.036,0.147002 0.029,0.148008 0.02101,0.149992 0.01299,0.150998 0.007,0.150998 37.202015,0 0.39799,-10e-7 0.007,-0.150998 0.013,-0.150998 0.021,-0.149992 0.029,-0.148008 0.036,-0.147002 0.043,-0.144992 0.05,-0.143007 0.058,-0.139991 0.064,-0.137002 0.071,-0.133985 0.077,-0.130016 0.084,-0.125995 0.09,-0.120994 0.096,-0.116998 0.101,-0.113004 0.107,-0.106997 0.11301,-0.101018 0.11699,-0.09599 0.121,-0.09001 0.126,-0.08398 0.13,-0.07702 0.134,-0.07099 0.13701,-0.064 0.13999,-0.058 0.143,-0.05001 0.145,-0.04299 0.147,-0.03601 0.148,-0.029 0.15,-0.02094 0.151,-0.01303 0.151,-0.007 V 50.535611 l -0.151,-0.007 -0.151,-0.01303 -0.15,-0.02097 -0.148,-0.02905 -0.147,-0.03601 -0.145,-0.04299 -0.143,-0.05001 -0.13999,-0.058 -0.13701,-0.064 -0.134,-0.07099 -0.13,-0.07699 -0.126,-0.084 -0.121,-0.09001 -0.11699,-0.09599 -0.11301,-0.100992 -0.107,-0.106998 -0.101,-0.113003 -0.096,-0.116999 -0.09,-0.12102 -0.084,-0.125995 -0.077,-0.12999 -0.071,-0.134011 -0.064,-0.137001 -0.058,-0.139991 -0.05,-0.143008 -0.043,-0.144991 -0.036,-0.147003 -0.029,-0.148008 -0.021,-0.149992 -0.013,-0.150998 -0.007,-0.150997 -37.600006,-3e-6 -0.007,0.150994 -0.013,0.150998 -0.02101,0.149992 -0.029,0.148008 -0.036,0.147003 -0.043,0.144991 -0.05,0.143008 -0.058,0.139991 -0.064,0.137001 -0.071,0.134011 -0.077,0.12999 -0.084,0.125995 -0.09,0.12102 -0.096,0.116999 -0.101,0.113003 -0.107,0.106998 -0.113001,0.100991 -0.116999,0.09599 -0.121002,0.09001 -0.126,0.084 -0.129998,0.07699 -0.134001,0.07099 -0.137001,0.064 -0.139999,0.058 -0.142999,0.05001 -0.145,0.043 -0.147002,0.03601 -0.148,0.029 -0.149998,0.02096 -0.151,0.01303 -0.151,0.007 z m 0.872581,4.16861 c 1.485728,-1.230658 -0.354209,-3.461589 -1.845159,-2.237264 -1.485728,1.230658 0.354209,3.461589 1.845159,2.237264 z m 4.438595,34.73305 c -2.22213,-1.3442 -4.241434,1.98546 -2.022348,3.33468 2.22213,1.3442 4.241434,-1.98546 2.022348,-3.33468 z m 16.488825,-1.21867 c 2.733265,-7.8e-4 4.948595,-2.21674 4.948595,-4.95 0,-2.73326 -2.21533,-4.949223 -4.948595,-4.95 -6.599997,0 -6.599997,9.9 0,9.9 z m 17.563055,0.93702 c -2.59265,-0.0777 -2.71836,3.80791 -0.1261,3.89795 2.59265,0.0777 2.71836,-3.80791 0.1261,-3.89795 z m 44.38695,-5.920034 c -10e-4,-2.598556 -3.90144,-2.598556 -3.9,0 0.001,2.598554 3.90144,2.598554 3.9,0 z"
       inkscape:connector-curvature="0"
       sodipodi:nodetypes="ccccccccccccccccccccccccccccccccccccccccccccccccccccccccccccccccccccccccccccccccccccccccccccccccccccccccccccccccccccccccccccccccccccccccccccccccccccccccccccccccccccccccccccccccccccccccccccccccccccccccccccccccccccccccccccccccccccccccccccccccccccccccccccccccccccccccccccccccccccccccccccccccccccccccccccccccccccccccccccccccccccccccccccccccccccccccccccccccccccccccccccccccccccccccccccccccccccccccccccccccccccccccccccccccccccccccccccccccccccccccccccccccccccccccccccccccccccccccccccccccccccccccccccccccccccccccccccccccccccccccccccccccccccccccccccccccccccccccccccccccccccccccccccccccccccccccccccccccccccccccccccccccccccccccccccccccccccccccccccccccccccccccccccccccccccccccccccccccccccccccccccccccccccccccccccccccccccccccccccccccccccccccccccccccccccccccccccccccccccccccccccccccccccccccccccccccccccccccccccccccccccccccccccccccccccccccccccccccccccccccccccccccccccccccccccccccccccccccccccccccscccccccc" />
  </g>
</svg>
