<?xml version="1.0" encoding="UTF-8" standalone="no"?>
<!-- Created with Inkscape (http://www.inkscape.org/) -->

<svg
   xmlns:dc="http://purl.org/dc/elements/1.1/"
   xmlns:cc="http://creativecommons.org/ns#"
   xmlns:rdf="http://www.w3.org/1999/02/22-rdf-syntax-ns#"
   xmlns:svg="http://www.w3.org/2000/svg"
   xmlns="http://www.w3.org/2000/svg"
   xmlns:sodipodi="http://sodipodi.sourceforge.net/DTD/sodipodi-0.dtd"
   xmlns:inkscape="http://www.inkscape.org/namespaces/inkscape"
   width="210mm"
   height="297mm"
   viewBox="0 0 210 297"
   version="1.1"
   id="svg6912"
   sodipodi:docname="Numbers2.svg"
   inkscape:version="0.92.3 (2405546, 2018-03-11)">
  <defs
     id="defs6906" />
  <sodipodi:namedview
     id="base"
     pagecolor="#ffffff"
     bordercolor="#666666"
     borderopacity="1.0"
     inkscape:pageopacity="0.0"
     inkscape:pageshadow="2"
     inkscape:zoom="0.7"
     inkscape:cx="449.40741"
     inkscape:cy="977.67029"
     inkscape:document-units="mm"
     inkscape:current-layer="layer1"
     showgrid="false"
     inkscape:window-width="1920"
     inkscape:window-height="1001"
     inkscape:window-x="-9"
     inkscape:window-y="-9"
     inkscape:window-maximized="1" />
  <metadata
     id="metadata6909">
    <rdf:RDF>
      <cc:Work
         rdf:about="">
        <dc:format>image/svg+xml</dc:format>
        <dc:type
           rdf:resource="http://purl.org/dc/dcmitype/StillImage" />
        <dc:title></dc:title>
      </cc:Work>
    </rdf:RDF>
  </metadata>
  <g
     inkscape:label="Ebene 1"
     inkscape:groupmode="layer"
     id="layer1">
    <flowRoot
       xml:space="preserve"
       id="flowRoot7525"
       style="fill:black;fill-opacity:1;stroke:none;font-family:Bahnschrift;font-style:normal;font-weight:normal;font-size:42.66666667px;line-height:1.25;letter-spacing:0px;word-spacing:0px;-inkscape-font-specification:Bahnschrift;font-stretch:normal;font-variant:normal"><flowRegion
         id="flowRegion7527"><rect
           id="rect7529"
           width="325.7742"
           height="84.34774"
           x="-8.0812206"
           y="-27.538988" /></flowRegion><flowPara
         id="flowPara7531"></flowPara></flowRoot>    <path
       inkscape:connector-curvature="0"
       id="path7780"
       style="font-style:normal;font-variant:normal;font-weight:bold;font-stretch:normal;font-size:medium;line-height:1.25;font-family:'Microsoft YaHei';-inkscape-font-specification:'Microsoft YaHei Bold';letter-spacing:0px;word-spacing:0px;fill:none;fill-opacity:1;stroke:#000000;stroke-width:0.36686364;stroke-opacity:1"
       d="M 7.2059372,1.5317834 V 13.630641 H 4.7219646 V 4.3138328 Q 4.263385,4.7112684 3.4685138,5.0322741 2.6736425,5.3456368 2.0087021,5.4220667 V 3.3049577 Q 4.1028822,2.6935183 5.6314807,1.5317834 Z" />
    <path
       inkscape:connector-curvature="0"
       id="path7782"
       style="font-style:normal;font-variant:normal;font-weight:bold;font-stretch:normal;font-size:medium;line-height:1.25;font-family:'Microsoft YaHei';-inkscape-font-specification:'Microsoft YaHei Bold';letter-spacing:0px;word-spacing:0px;fill:none;fill-opacity:1;stroke:#000000;stroke-width:0.36686364;stroke-opacity:1"
       d="m 13.893556,11.574676 h 5.021446 v 2.055965 h -7.872283 v -0.878944 q 0,-0.924802 0.336292,-1.689102 0.343935,-0.764299 0.940088,-1.4215962 0.596154,-0.6649404 1.849605,-1.5515276 1.146448,-0.8560152 1.605028,-1.5133125 0.45858,-0.6649404 0.45858,-1.4063107 0,-1.5973855 -1.742603,-1.5973855 -1.528598,0 -2.919623,1.2228788 V 2.5941594 q 1.551528,-1.001232 3.485205,-1.001232 1.773174,0 2.804978,0.9095161 1.031804,0.9018732 1.031804,2.4916157 0,0.8865871 -0.298077,1.6050284 -0.298076,0.7107984 -0.863658,1.3375238 -0.565581,0.6267254 -1.811389,1.5056695 -1.19995,0.8560151 -1.612672,1.3222381 -0.412721,0.466222 -0.412721,0.810157 z" />
    <path
       inkscape:connector-curvature="0"
       id="path7784"
       style="font-style:normal;font-variant:normal;font-weight:bold;font-stretch:normal;font-size:medium;line-height:1.25;font-family:'Microsoft YaHei';-inkscape-font-specification:'Microsoft YaHei Bold';letter-spacing:0px;word-spacing:0px;fill:none;fill-opacity:1;stroke:#000000;stroke-width:0.36686364;stroke-opacity:1"
       d="m 21.093255,11.054952 q 1.184664,0.886588 2.766763,0.886588 1.001232,0 1.589743,-0.443294 0.58851,-0.443294 0.58851,-1.261094 0,-0.840729 -0.703155,-1.2840226 Q 24.639604,8.5098358 23.37851,8.5098358 H 22.323777 V 6.6067306 h 0.97066 q 2.384614,0 2.384614,-1.6050285 0,-1.5133125 -1.826676,-1.5133125 -1.192307,0 -2.315827,0.7795852 v -2.040679 q 1.222879,-0.6343684 2.881409,-0.6343684 1.681458,0 2.728548,0.7795852 1.04709,0.7719423 1.04709,2.147681 0,2.3234698 -2.354042,2.9196232 v 0.038215 q 1.238165,0.1375739 1.979536,0.9095161 0.74137,0.7642993 0.74137,1.8648901 0,1.689102 -1.238165,2.636833 -1.230522,0.947731 -3.286487,0.947731 -1.826675,0 -2.942552,-0.603797 z" />
    <path
       inkscape:connector-curvature="0"
       id="path7786"
       style="font-style:normal;font-variant:normal;font-weight:bold;font-stretch:normal;font-size:medium;line-height:1.25;font-family:'Microsoft YaHei';-inkscape-font-specification:'Microsoft YaHei Bold';letter-spacing:0px;word-spacing:0px;fill:none;fill-opacity:1;stroke:#000000;stroke-width:0.36686364;stroke-opacity:1"
       d="m 37.334613,1.7916452 v 7.5207049 h 1.673816 v 1.7961029 h -1.673816 v 2.522188 H 35.087574 V 11.108453 H 29.798623 V 9.2970641 q 1.643243,-1.8343183 3.080126,-3.8826403 1.436882,-2.0483221 2.17061,-3.6227786 z m -5.350094,7.5207049 h 3.103055 V 4.9711302 Q 34.72071,5.6589995 34.032841,6.6373026 33.352614,7.6156057 31.984519,9.3123501 Z" />
    <path
       inkscape:connector-curvature="0"
       id="path7788"
       style="font-style:normal;font-variant:normal;font-weight:bold;font-stretch:normal;font-size:medium;line-height:1.25;font-family:'Microsoft YaHei';-inkscape-font-specification:'Microsoft YaHei Bold';letter-spacing:0px;word-spacing:0px;fill:none;fill-opacity:1;stroke:#000000;stroke-width:0.36686364;stroke-opacity:1"
       d="m 40.529385,13.324921 v -2.132395 q 1.230522,0.749014 2.621547,0.749014 1.04709,0 1.6356,-0.512081 0.596154,-0.519723 0.596154,-1.398668 0,-1.8419609 -2.522188,-1.8419609 -0.932445,0 -2.147681,0.1375739 l 0.443294,-6.5347588 h 6.267254 v 2.0330361 h -4.272433 l -0.168146,2.4916156 q 0.634368,-0.053501 1.169378,-0.053501 1.734959,0 2.736191,0.9477311 1.008875,0.9477311 1.008875,2.5680455 0,1.7884605 -1.215236,2.9272665 -1.215235,1.131163 -3.301772,1.131163 -1.689102,0 -2.850837,-0.512081 z" />
    <path
       inkscape:connector-curvature="0"
       id="path7790"
       style="font-style:normal;font-variant:normal;font-weight:bold;font-stretch:normal;font-size:medium;line-height:1.25;font-family:'Microsoft YaHei';-inkscape-font-specification:'Microsoft YaHei Bold';letter-spacing:0px;word-spacing:0px;fill:none;fill-opacity:1;stroke:#000000;stroke-width:0.36686364;stroke-opacity:1"
       d="m 57.129966,4.0004701 q -0.901873,-0.5120805 -1.964249,-0.5120805 -1.368095,0 -2.193539,1.077662 -0.8178,1.0700189 -0.8178,2.7744063 h 0.04586 q 0.848372,-1.2993087 2.514545,-1.2993087 1.490383,0 2.361684,1.024161 0.878945,1.016518 0.878945,2.6521185 0,1.7884603 -1.138806,2.9578383 -1.138806,1.161735 -2.911981,1.161735 -2.033036,0 -3.118341,-1.467455 -1.077662,-1.467454 -1.077662,-4.020214 0,-3.0036962 1.398668,-4.8762294 1.406311,-1.8801762 3.905569,-1.8801762 1.345167,0 2.117109,0.3210057 z m -4.891515,5.7398876 q 0,0.9171593 0.45858,1.5591703 0.458579,0.642012 1.207592,0.642012 0.756657,0 1.192307,-0.588511 0.435651,-0.58851 0.435651,-1.4750975 0,-1.9948211 -1.643243,-1.9948211 -0.741371,0 -1.19995,0.5273665 -0.450937,0.5273665 -0.450937,1.3298808 z" />
    <path
       inkscape:connector-curvature="0"
       id="path7792"
       style="font-style:normal;font-variant:normal;font-weight:bold;font-stretch:normal;font-size:medium;line-height:1.25;font-family:'Microsoft YaHei';-inkscape-font-specification:'Microsoft YaHei Bold';letter-spacing:0px;word-spacing:0px;fill:none;fill-opacity:1;stroke:#000000;stroke-width:0.36686364;stroke-opacity:1"
       d="m 67.516791,3.2973148 q -1.436883,2.5756885 -2.147681,4.150145 -0.703156,1.5744565 -1.146449,3.0648402 -0.443294,1.490384 -0.680227,3.118341 h -2.652118 q 0.38215,-2.315827 1.345167,-4.6851546 0.97066,-2.3769707 2.675047,-5.1208051 H 59.262358 V 1.7916452 h 8.254433 z" />
    <path
       inkscape:connector-curvature="0"
       id="path7794"
       style="font-style:normal;font-variant:normal;font-weight:bold;font-stretch:normal;font-size:medium;line-height:1.25;font-family:'Microsoft YaHei';-inkscape-font-specification:'Microsoft YaHei Bold';letter-spacing:0px;word-spacing:0px;fill:none;fill-opacity:1;stroke:#000000;stroke-width:0.36686364;stroke-opacity:1"
       d="m 68.846672,10.443513 q 0,-1.031804 0.596154,-1.8343183 0.596153,-0.8025142 1.727316,-1.1770209 -0.901873,-0.4509365 -1.398668,-1.1464489 -0.489151,-0.6955123 -0.489151,-1.5438845 0,-0.8865872 0.481508,-1.6050285 0.489152,-0.7260843 1.360453,-1.1311629 0.871301,-0.4127216 1.948963,-0.4127216 1.085305,0 1.964249,0.4050786 0.878945,0.3974356 1.368096,1.1235199 0.489152,0.7184413 0.489152,1.5897425 0,0.8254432 -0.542653,1.5362416 -0.535009,0.7107983 -1.444525,1.1235199 1.108233,0.3821496 1.727316,1.1846639 0.619082,0.7948712 0.619082,1.8648902 0,1.50567 -1.169378,2.453401 -1.169377,0.947731 -3.034268,0.947731 -1.86489,0 -3.034268,-0.947731 -1.169378,-0.947731 -1.169378,-2.430472 z m 2.468687,-0.221647 q 0,0.825443 0.473865,1.322238 0.473866,0.496794 1.268737,0.496794 0.7643,0 1.253451,-0.496794 0.489152,-0.496795 0.489152,-1.322238 0,-0.7719421 -0.496795,-1.2840226 -0.496794,-0.5197235 -1.245808,-0.5197235 -0.771942,0 -1.261094,0.5197235 -0.481508,0.5120805 -0.481508,1.2840226 z m 0.366864,-5.2278068 q 0,0.6496543 0.397435,1.1158769 0.405079,0.4585796 1.016518,0.4585796 0.588511,0 1.001232,-0.4509366 0.412722,-0.4509366 0.412722,-1.1235199 0,-0.6725834 -0.405079,-1.138806 -0.397435,-0.4662225 -1.008875,-0.4662225 -0.626725,0 -1.024161,0.4662225 -0.389792,0.4662226 -0.389792,1.138806 z" />
    <path
       inkscape:connector-curvature="0"
       id="path7796"
       style="font-style:normal;font-variant:normal;font-weight:bold;font-stretch:normal;font-size:medium;line-height:1.25;font-family:'Microsoft YaHei';-inkscape-font-specification:'Microsoft YaHei Bold';letter-spacing:0px;word-spacing:0px;fill:none;fill-opacity:1;stroke:#000000;stroke-width:0.36686364;stroke-opacity:1"
       d="m 79.179999,11.3301 q 0.947731,0.61144 2.231754,0.61144 2.866122,0 2.927266,-3.7297809 l -0.04586,-0.015286 q -0.779585,1.1999499 -2.407542,1.1999499 -1.475098,0 -2.430472,-1.031804 -0.947731,-1.0394471 -0.947731,-2.6139036 0,-1.8496042 1.146449,-3.0036961 1.146449,-1.1540919 2.98841,-1.1540919 1.918391,0 3.011339,1.4598116 1.092948,1.4598116 1.092948,4.0737151 0,3.1030549 -1.322238,4.9068009 -1.314594,1.803747 -3.790924,1.803747 -1.398668,0 -2.453401,-0.450937 z m 1.750246,-5.8010314 q 0,0.9400882 0.450936,1.4750977 0.45858,0.5350094 1.245808,0.5350094 0.703155,0 1.154092,-0.5120805 0.45858,-0.5120805 0.45858,-1.2687368 0,-0.9095161 -0.45858,-1.5897425 -0.450937,-0.6802263 -1.215236,-0.6802263 -0.74137,0 -1.192307,0.5885104 -0.443293,0.5885105 -0.443293,1.4521686 z" />
    <path
       inkscape:connector-curvature="0"
       id="path7798"
       style="font-style:normal;font-variant:normal;font-weight:bold;font-stretch:normal;font-size:medium;line-height:1.25;font-family:'Microsoft YaHei';-inkscape-font-specification:'Microsoft YaHei Bold';letter-spacing:0px;word-spacing:0px;fill:none;fill-opacity:1;stroke:#000000;stroke-width:0.36686364;stroke-opacity:1"
       d="M 94.152623,1.5317834 V 13.630641 H 91.66865 V 4.3138328 Q 91.210071,4.7112684 90.4152,5.0322741 89.620328,5.3456368 88.955388,5.4220667 v -2.117109 q 2.09418,-0.6114394 3.622778,-1.7731743 z" />
    <path
       inkscape:connector-curvature="0"
       id="path7800"
       style="font-style:normal;font-variant:normal;font-weight:bold;font-stretch:normal;font-size:medium;line-height:1.25;font-family:'Microsoft YaHei';-inkscape-font-specification:'Microsoft YaHei Bold';letter-spacing:0px;word-spacing:0px;fill:none;fill-opacity:1;stroke:#000000;stroke-width:0.36686364;stroke-opacity:1"
       d="m 97.767759,7.9060394 q 0,-3.0724831 1.131163,-4.6927976 1.131168,-1.6203144 3.271198,-1.6203144 4.08136,0 4.08136,6.0379643 0,2.9731243 -1.10823,4.5934383 -1.10824,1.612672 -3.20242,1.612672 -4.173071,0 -4.173071,-5.9309626 z m 2.499261,-0.061144 q 0,4.0966446 1.75024,4.0966446 1.71968,0 1.71968,-4.2189325 0,-4.234218 -1.67382,-4.234218 -1.7961,0 -1.7961,4.3565059 z" />
    <path
       inkscape:connector-curvature="0"
       id="path7802"
       style="font-style:normal;font-variant:normal;font-weight:bold;font-stretch:normal;font-size:medium;line-height:1.25;font-family:'Microsoft YaHei';-inkscape-font-specification:'Microsoft YaHei Bold';letter-spacing:0px;word-spacing:0px;fill:none;fill-opacity:1;stroke:#000000;stroke-width:0.36686364;stroke-opacity:1"
       d="M 113.47411,1.5317834 V 13.630641 h -2.48397 V 4.3138328 q -0.45858,0.3974356 -1.25345,0.7184413 -0.79487,0.3133627 -1.45981,0.3897926 v -2.117109 q 2.09418,-0.6114394 3.62277,-1.7731743 z" />
    <path
       inkscape:connector-curvature="0"
       id="path7804"
       style="font-style:normal;font-variant:normal;font-weight:bold;font-stretch:normal;font-size:medium;line-height:1.25;font-family:'Microsoft YaHei';-inkscape-font-specification:'Microsoft YaHei Bold';letter-spacing:0px;word-spacing:0px;fill:none;fill-opacity:1;stroke:#000000;stroke-width:0.36686364;stroke-opacity:1"
       d="M 123.13485,1.5317834 V 13.630641 h -2.48398 V 4.3138328 q -0.45858,0.3974356 -1.25345,0.7184413 -0.79487,0.3133627 -1.45981,0.3897926 v -2.117109 q 2.09418,-0.6114394 3.62278,-1.7731743 z" />
    <path
       inkscape:connector-curvature="0"
       id="path7806"
       style="font-style:normal;font-variant:normal;font-weight:bold;font-stretch:normal;font-size:medium;line-height:1.25;font-family:'Microsoft YaHei';-inkscape-font-specification:'Microsoft YaHei Bold';letter-spacing:0px;word-spacing:0px;fill:none;fill-opacity:1;stroke:#000000;stroke-width:0.36686364;stroke-opacity:1"
       d="M 132.79559,1.5317834 V 13.630641 h -2.48397 V 4.3138328 q -0.45858,0.3974356 -1.25345,0.7184413 -0.79487,0.3133627 -1.45981,0.3897926 v -2.117109 q 2.09418,-0.6114394 3.62277,-1.7731743 z" />
    <path
       inkscape:connector-curvature="0"
       id="path7808"
       style="font-style:normal;font-variant:normal;font-weight:bold;font-stretch:normal;font-size:medium;line-height:1.25;font-family:'Microsoft YaHei';-inkscape-font-specification:'Microsoft YaHei Bold';letter-spacing:0px;word-spacing:0px;fill:none;fill-opacity:1;stroke:#000000;stroke-width:0.36686364;stroke-opacity:1"
       d="m 139.48321,11.574676 h 5.02145 v 2.055965 h -7.87229 v -0.878944 q 0,-0.924802 0.3363,-1.689102 0.34393,-0.764299 0.94008,-1.4215962 0.59616,-0.6649404 1.84961,-1.5515276 1.14645,-0.8560152 1.60503,-1.5133125 0.45858,-0.6649404 0.45858,-1.4063107 0,-1.5973855 -1.74261,-1.5973855 -1.5286,0 -2.91962,1.2228788 V 2.5941594 q 1.55153,-1.001232 3.4852,-1.001232 1.77318,0 2.80498,0.9095161 1.03181,0.9018732 1.03181,2.4916157 0,0.8865871 -0.29808,1.6050284 -0.29808,0.7107984 -0.86366,1.3375238 -0.56558,0.6267254 -1.81139,1.5056695 -1.19995,0.8560151 -1.61267,1.3222381 -0.41272,0.466222 -0.41272,0.810157 z" />
    <path
       inkscape:connector-curvature="0"
       id="path7749"
       style="font-style:normal;font-variant:normal;font-weight:bold;font-stretch:normal;font-size:medium;line-height:1.25;font-family:'Microsoft YaHei';-inkscape-font-specification:'Microsoft YaHei Bold';letter-spacing:0px;word-spacing:0px;fill:none;fill-opacity:1;stroke:#000000;stroke-width:0.36686364;stroke-opacity:1"
       d="M 7.2059372,16.650832 V 28.749689 H 4.7219646 V 19.432881 Q 4.263385,19.830317 3.4685138,20.151322 2.6736425,20.464685 2.0087021,20.541115 v -2.117109 q 2.0941801,-0.61144 3.6227786,-1.773174 z" />
    <path
       inkscape:connector-curvature="0"
       id="path7751"
       style="font-style:normal;font-variant:normal;font-weight:bold;font-stretch:normal;font-size:medium;line-height:1.25;font-family:'Microsoft YaHei';-inkscape-font-specification:'Microsoft YaHei Bold';letter-spacing:0px;word-spacing:0px;fill:none;fill-opacity:1;stroke:#000000;stroke-width:0.36686364;stroke-opacity:1"
       d="m 13.893556,26.693724 h 5.021446 v 2.055965 h -7.872283 v -0.878944 q 0,-0.924802 0.336292,-1.689101 0.343935,-0.7643 0.940088,-1.421597 0.596154,-0.66494 1.849605,-1.551528 1.146448,-0.856015 1.605028,-1.513312 0.45858,-0.664941 0.45858,-1.406311 0,-1.597385 -1.742603,-1.597385 -1.528598,0 -2.919623,1.222878 v -2.201181 q 1.551528,-1.001233 3.485205,-1.001233 1.773174,0 2.804978,0.909517 1.031804,0.901873 1.031804,2.491615 0,0.886587 -0.298077,1.605029 -0.298076,0.710798 -0.863658,1.337523 -0.565581,0.626726 -1.811389,1.50567 -1.19995,0.856015 -1.612672,1.322238 -0.412721,0.466222 -0.412721,0.810157 z" />
    <path
       inkscape:connector-curvature="0"
       id="path7753"
       style="font-style:normal;font-variant:normal;font-weight:bold;font-stretch:normal;font-size:medium;line-height:1.25;font-family:'Microsoft YaHei';-inkscape-font-specification:'Microsoft YaHei Bold';letter-spacing:0px;word-spacing:0px;fill:none;fill-opacity:1;stroke:#000000;stroke-width:0.36686364;stroke-opacity:1"
       d="m 21.093255,26.174001 q 1.184664,0.886587 2.766763,0.886587 1.001232,0 1.589743,-0.443294 0.58851,-0.443293 0.58851,-1.261094 0,-0.840729 -0.703155,-1.284022 -0.695512,-0.443294 -1.956606,-0.443294 h -1.054733 v -1.903105 h 0.97066 q 2.384614,0 2.384614,-1.605029 0,-1.513312 -1.826676,-1.513312 -1.192307,0 -2.315827,0.779585 v -2.040679 q 1.222879,-0.634369 2.881409,-0.634369 1.681458,0 2.728548,0.779586 1.04709,0.771942 1.04709,2.147681 0,2.32347 -2.354042,2.919623 v 0.03821 q 1.238165,0.137574 1.979536,0.909516 0.74137,0.764299 0.74137,1.86489 0,1.689102 -1.238165,2.636833 -1.230522,0.947731 -3.286487,0.947731 -1.826675,0 -2.942552,-0.603797 z" />
    <path
       inkscape:connector-curvature="0"
       id="path7755"
       style="font-style:normal;font-variant:normal;font-weight:bold;font-stretch:normal;font-size:medium;line-height:1.25;font-family:'Microsoft YaHei';-inkscape-font-specification:'Microsoft YaHei Bold';letter-spacing:0px;word-spacing:0px;fill:none;fill-opacity:1;stroke:#000000;stroke-width:0.36686364;stroke-opacity:1"
       d="m 37.334613,16.910693 v 7.520705 h 1.673816 v 1.796103 h -1.673816 v 2.522188 h -2.247039 v -2.522188 h -5.288951 v -1.811389 q 1.643243,-1.834318 3.080126,-3.88264 1.436882,-2.048322 2.17061,-3.622779 z m -5.350094,7.520705 h 3.103055 v -4.34122 q -0.366864,0.68787 -1.054733,1.666173 -0.680227,0.978303 -2.048322,2.675047 z" />
    <path
       inkscape:connector-curvature="0"
       id="path7757"
       style="font-style:normal;font-variant:normal;font-weight:bold;font-stretch:normal;font-size:medium;line-height:1.25;font-family:'Microsoft YaHei';-inkscape-font-specification:'Microsoft YaHei Bold';letter-spacing:0px;word-spacing:0px;fill:none;fill-opacity:1;stroke:#000000;stroke-width:0.36686364;stroke-opacity:1"
       d="m 40.529385,28.443969 v -2.132395 q 1.230522,0.749014 2.621547,0.749014 1.04709,0 1.6356,-0.512081 0.596154,-0.519723 0.596154,-1.398667 0,-1.841962 -2.522188,-1.841962 -0.932445,0 -2.147681,0.137574 l 0.443294,-6.534759 h 6.267254 v 2.033036 h -4.272433 l -0.168146,2.491616 q 0.634368,-0.0535 1.169378,-0.0535 1.734959,0 2.736191,0.947731 1.008875,0.947731 1.008875,2.568046 0,1.78846 -1.215236,2.927266 -1.215235,1.131163 -3.301772,1.131163 -1.689102,0 -2.850837,-0.512081 z" />
    <path
       inkscape:connector-curvature="0"
       id="path7759"
       style="font-style:normal;font-variant:normal;font-weight:bold;font-stretch:normal;font-size:medium;line-height:1.25;font-family:'Microsoft YaHei';-inkscape-font-specification:'Microsoft YaHei Bold';letter-spacing:0px;word-spacing:0px;fill:none;fill-opacity:1;stroke:#000000;stroke-width:0.36686364;stroke-opacity:1"
       d="m 57.129966,19.119518 q -0.901873,-0.51208 -1.964249,-0.51208 -1.368095,0 -2.193539,1.077662 -0.8178,1.070019 -0.8178,2.774406 h 0.04586 q 0.848372,-1.299309 2.514545,-1.299309 1.490383,0 2.361684,1.024161 0.878945,1.016518 0.878945,2.652119 0,1.78846 -1.138806,2.957838 -1.138806,1.161735 -2.911981,1.161735 -2.033036,0 -3.118341,-1.467455 -1.077662,-1.467454 -1.077662,-4.020214 0,-3.003696 1.398668,-4.876229 1.406311,-1.880177 3.905569,-1.880177 1.345167,0 2.117109,0.321006 z m -4.891515,5.739888 q 0,0.917159 0.45858,1.55917 0.458579,0.642012 1.207592,0.642012 0.756657,0 1.192307,-0.588511 0.435651,-0.58851 0.435651,-1.475097 0,-1.994821 -1.643243,-1.994821 -0.741371,0 -1.19995,0.527366 -0.450937,0.527367 -0.450937,1.329881 z" />
    <path
       inkscape:connector-curvature="0"
       id="path7761"
       style="font-style:normal;font-variant:normal;font-weight:bold;font-stretch:normal;font-size:medium;line-height:1.25;font-family:'Microsoft YaHei';-inkscape-font-specification:'Microsoft YaHei Bold';letter-spacing:0px;word-spacing:0px;fill:none;fill-opacity:1;stroke:#000000;stroke-width:0.36686364;stroke-opacity:1"
       d="m 67.516791,18.416363 q -1.436883,2.575688 -2.147681,4.150145 -0.703156,1.574456 -1.146449,3.06484 -0.443294,1.490384 -0.680227,3.118341 h -2.652118 q 0.38215,-2.315827 1.345167,-4.685154 0.97066,-2.376971 2.675047,-5.120806 h -5.648172 v -2.033036 h 8.254433 z" />
    <path
       inkscape:connector-curvature="0"
       id="path7763"
       style="font-style:normal;font-variant:normal;font-weight:bold;font-stretch:normal;font-size:medium;line-height:1.25;font-family:'Microsoft YaHei';-inkscape-font-specification:'Microsoft YaHei Bold';letter-spacing:0px;word-spacing:0px;fill:none;fill-opacity:1;stroke:#000000;stroke-width:0.36686364;stroke-opacity:1"
       d="m 68.846672,25.562561 q 0,-1.031804 0.596154,-1.834318 0.596153,-0.802514 1.727316,-1.177021 -0.901873,-0.450937 -1.398668,-1.146449 -0.489151,-0.695512 -0.489151,-1.543884 0,-0.886588 0.481508,-1.605029 0.489152,-0.726084 1.360453,-1.131163 0.871301,-0.412722 1.948963,-0.412722 1.085305,0 1.964249,0.405079 0.878945,0.397436 1.368096,1.12352 0.489152,0.718441 0.489152,1.589743 0,0.825443 -0.542653,1.536241 -0.535009,0.710798 -1.444525,1.12352 1.108233,0.38215 1.727316,1.184664 0.619082,0.794871 0.619082,1.86489 0,1.50567 -1.169378,2.453401 -1.169377,0.947731 -3.034268,0.947731 -1.86489,0 -3.034268,-0.947731 -1.169378,-0.947731 -1.169378,-2.430472 z m 2.468687,-0.221647 q 0,0.825444 0.473865,1.322238 0.473866,0.496795 1.268737,0.496795 0.7643,0 1.253451,-0.496795 0.489152,-0.496794 0.489152,-1.322238 0,-0.771942 -0.496795,-1.284022 -0.496794,-0.519724 -1.245808,-0.519724 -0.771942,0 -1.261094,0.519724 -0.481508,0.51208 -0.481508,1.284022 z m 0.366864,-5.227807 q 0,0.649655 0.397435,1.115877 0.405079,0.45858 1.016518,0.45858 0.588511,0 1.001232,-0.450937 0.412722,-0.450936 0.412722,-1.12352 0,-0.672583 -0.405079,-1.138806 -0.397435,-0.466222 -1.008875,-0.466222 -0.626725,0 -1.024161,0.466222 -0.389792,0.466223 -0.389792,1.138806 z" />
    <path
       inkscape:connector-curvature="0"
       id="path7765"
       style="font-style:normal;font-variant:normal;font-weight:bold;font-stretch:normal;font-size:medium;line-height:1.25;font-family:'Microsoft YaHei';-inkscape-font-specification:'Microsoft YaHei Bold';letter-spacing:0px;word-spacing:0px;fill:none;fill-opacity:1;stroke:#000000;stroke-width:0.36686364;stroke-opacity:1"
       d="m 79.179999,26.449148 q 0.947731,0.61144 2.231754,0.61144 2.866122,0 2.927266,-3.729781 l -0.04586,-0.01529 q -0.779585,1.19995 -2.407542,1.19995 -1.475098,0 -2.430472,-1.031804 -0.947731,-1.039447 -0.947731,-2.613903 0,-1.849605 1.146449,-3.003697 1.146449,-1.154092 2.98841,-1.154092 1.918391,0 3.011339,1.459812 1.092948,1.459812 1.092948,4.073715 0,3.103055 -1.322238,4.906802 -1.314594,1.803746 -3.790924,1.803746 -1.398668,0 -2.453401,-0.450937 z m 1.750246,-5.801031 q 0,0.940088 0.450936,1.475097 0.45858,0.53501 1.245808,0.53501 0.703155,0 1.154092,-0.512081 0.45858,-0.51208 0.45858,-1.268736 0,-0.909517 -0.45858,-1.589743 -0.450937,-0.680226 -1.215236,-0.680226 -0.74137,0 -1.192307,0.58851 -0.443293,0.588511 -0.443293,1.452169 z" />
    <path
       inkscape:connector-curvature="0"
       id="path7767"
       style="font-style:normal;font-variant:normal;font-weight:bold;font-stretch:normal;font-size:medium;line-height:1.25;font-family:'Microsoft YaHei';-inkscape-font-specification:'Microsoft YaHei Bold';letter-spacing:0px;word-spacing:0px;fill:none;fill-opacity:1;stroke:#000000;stroke-width:0.36686364;stroke-opacity:1"
       d="M 94.152623,16.650832 V 28.749689 H 91.66865 v -9.316808 q -0.458579,0.397436 -1.25345,0.718441 -0.794872,0.313363 -1.459812,0.389793 v -2.117109 q 2.09418,-0.61144 3.622778,-1.773174 z" />
    <path
       inkscape:connector-curvature="0"
       id="path7769"
       style="font-style:normal;font-variant:normal;font-weight:bold;font-stretch:normal;font-size:medium;line-height:1.25;font-family:'Microsoft YaHei';-inkscape-font-specification:'Microsoft YaHei Bold';letter-spacing:0px;word-spacing:0px;fill:none;fill-opacity:1;stroke:#000000;stroke-width:0.36686364;stroke-opacity:1"
       d="m 97.767759,23.025088 q 0,-3.072484 1.131163,-4.692798 1.131168,-1.620315 3.271198,-1.620315 4.08136,0 4.08136,6.037965 0,2.973124 -1.10823,4.593438 -1.10824,1.612672 -3.20242,1.612672 -4.173071,0 -4.173071,-5.930962 z m 2.499261,-0.06114 q 0,4.096644 1.75024,4.096644 1.71968,0 1.71968,-4.218932 0,-4.234218 -1.67382,-4.234218 -1.7961,0 -1.7961,4.356506 z" />
    <path
       inkscape:connector-curvature="0"
       id="path7771"
       style="font-style:normal;font-variant:normal;font-weight:bold;font-stretch:normal;font-size:medium;line-height:1.25;font-family:'Microsoft YaHei';-inkscape-font-specification:'Microsoft YaHei Bold';letter-spacing:0px;word-spacing:0px;fill:none;fill-opacity:1;stroke:#000000;stroke-width:0.36686364;stroke-opacity:1"
       d="m 113.47411,16.650832 v 12.098857 h -2.48397 v -9.316808 q -0.45858,0.397436 -1.25345,0.718441 -0.79487,0.313363 -1.45981,0.389793 v -2.117109 q 2.09418,-0.61144 3.62277,-1.773174 z" />
    <path
       inkscape:connector-curvature="0"
       id="path7773"
       style="font-style:normal;font-variant:normal;font-weight:bold;font-stretch:normal;font-size:medium;line-height:1.25;font-family:'Microsoft YaHei';-inkscape-font-specification:'Microsoft YaHei Bold';letter-spacing:0px;word-spacing:0px;fill:none;fill-opacity:1;stroke:#000000;stroke-width:0.36686364;stroke-opacity:1"
       d="m 123.13485,16.650832 v 12.098857 h -2.48398 v -9.316808 q -0.45858,0.397436 -1.25345,0.718441 -0.79487,0.313363 -1.45981,0.389793 v -2.117109 q 2.09418,-0.61144 3.62278,-1.773174 z" />
    <path
       inkscape:connector-curvature="0"
       id="path7775"
       style="font-style:normal;font-variant:normal;font-weight:bold;font-stretch:normal;font-size:medium;line-height:1.25;font-family:'Microsoft YaHei';-inkscape-font-specification:'Microsoft YaHei Bold';letter-spacing:0px;word-spacing:0px;fill:none;fill-opacity:1;stroke:#000000;stroke-width:0.36686364;stroke-opacity:1"
       d="m 132.79559,16.650832 v 12.098857 h -2.48397 v -9.316808 q -0.45858,0.397436 -1.25345,0.718441 -0.79487,0.313363 -1.45981,0.389793 v -2.117109 q 2.09418,-0.61144 3.62277,-1.773174 z" />
    <path
       inkscape:connector-curvature="0"
       id="path7777"
       style="font-style:normal;font-variant:normal;font-weight:bold;font-stretch:normal;font-size:medium;line-height:1.25;font-family:'Microsoft YaHei';-inkscape-font-specification:'Microsoft YaHei Bold';letter-spacing:0px;word-spacing:0px;fill:none;fill-opacity:1;stroke:#000000;stroke-width:0.36686364;stroke-opacity:1"
       d="m 139.48321,26.693724 h 5.02145 v 2.055965 h -7.87229 v -0.878944 q 0,-0.924802 0.3363,-1.689101 0.34393,-0.7643 0.94008,-1.421597 0.59616,-0.66494 1.84961,-1.551528 1.14645,-0.856015 1.60503,-1.513312 0.45858,-0.664941 0.45858,-1.406311 0,-1.597385 -1.74261,-1.597385 -1.5286,0 -2.91962,1.222878 v -2.201181 q 1.55153,-1.001233 3.4852,-1.001233 1.77318,0 2.80498,0.909517 1.03181,0.901873 1.03181,2.491615 0,0.886587 -0.29808,1.605029 -0.29808,0.710798 -0.86366,1.337523 -0.56558,0.626726 -1.81139,1.50567 -1.19995,0.856015 -1.61267,1.322238 -0.41272,0.466222 -0.41272,0.810157 z" />
    <path
       inkscape:connector-curvature="0"
       id="path7718"
       style="font-style:normal;font-variant:normal;font-weight:bold;font-stretch:normal;font-size:medium;line-height:1.25;font-family:'Microsoft YaHei';-inkscape-font-specification:'Microsoft YaHei Bold';letter-spacing:0px;word-spacing:0px;fill:none;fill-opacity:1;stroke:#000000;stroke-width:0.36686364;stroke-opacity:1"
       d="M 7.2059372,31.202916 V 43.301773 H 4.7219646 V 33.984965 Q 4.263385,34.382401 3.4685138,34.703406 2.6736425,35.016769 2.0087021,35.093199 V 32.97609 q 2.0941801,-0.61144 3.6227786,-1.773174 z" />
    <path
       inkscape:connector-curvature="0"
       id="path7720"
       style="font-style:normal;font-variant:normal;font-weight:bold;font-stretch:normal;font-size:medium;line-height:1.25;font-family:'Microsoft YaHei';-inkscape-font-specification:'Microsoft YaHei Bold';letter-spacing:0px;word-spacing:0px;fill:none;fill-opacity:1;stroke:#000000;stroke-width:0.36686364;stroke-opacity:1"
       d="m 13.893556,41.245808 h 5.021446 v 2.055965 h -7.872283 v -0.878944 q 0,-0.924802 0.336292,-1.689102 0.343935,-0.764299 0.940088,-1.421596 0.596154,-0.664941 1.849605,-1.551528 1.146448,-0.856015 1.605028,-1.513312 0.45858,-0.664941 0.45858,-1.406311 0,-1.597385 -1.742603,-1.597385 -1.528598,0 -2.919623,1.222878 v -2.201181 q 1.551528,-1.001233 3.485205,-1.001233 1.773174,0 2.804978,0.909517 1.031804,0.901873 1.031804,2.491615 0,0.886587 -0.298077,1.605029 -0.298076,0.710798 -0.863658,1.337523 -0.565581,0.626726 -1.811389,1.50567 -1.19995,0.856015 -1.612672,1.322238 -0.412721,0.466222 -0.412721,0.810157 z" />
    <path
       inkscape:connector-curvature="0"
       id="path7722"
       style="font-style:normal;font-variant:normal;font-weight:bold;font-stretch:normal;font-size:medium;line-height:1.25;font-family:'Microsoft YaHei';-inkscape-font-specification:'Microsoft YaHei Bold';letter-spacing:0px;word-spacing:0px;fill:none;fill-opacity:1;stroke:#000000;stroke-width:0.36686364;stroke-opacity:1"
       d="m 21.093255,40.726085 q 1.184664,0.886587 2.766763,0.886587 1.001232,0 1.589743,-0.443294 0.58851,-0.443293 0.58851,-1.261094 0,-0.840729 -0.703155,-1.284023 -0.695512,-0.443293 -1.956606,-0.443293 h -1.054733 v -1.903105 h 0.97066 q 2.384614,0 2.384614,-1.605029 0,-1.513312 -1.826676,-1.513312 -1.192307,0 -2.315827,0.779585 v -2.040679 q 1.222879,-0.634369 2.881409,-0.634369 1.681458,0 2.728548,0.779586 1.04709,0.771942 1.04709,2.147681 0,2.323469 -2.354042,2.919623 v 0.03822 q 1.238165,0.137574 1.979536,0.909516 0.74137,0.764299 0.74137,1.86489 0,1.689102 -1.238165,2.636833 -1.230522,0.947731 -3.286487,0.947731 -1.826675,0 -2.942552,-0.603797 z" />
    <path
       inkscape:connector-curvature="0"
       id="path7724"
       style="font-style:normal;font-variant:normal;font-weight:bold;font-stretch:normal;font-size:medium;line-height:1.25;font-family:'Microsoft YaHei';-inkscape-font-specification:'Microsoft YaHei Bold';letter-spacing:0px;word-spacing:0px;fill:none;fill-opacity:1;stroke:#000000;stroke-width:0.36686364;stroke-opacity:1"
       d="m 37.334613,31.462777 v 7.520705 h 1.673816 v 1.796103 h -1.673816 v 2.522188 h -2.247039 v -2.522188 h -5.288951 v -1.811389 q 1.643243,-1.834318 3.080126,-3.88264 1.436882,-2.048322 2.17061,-3.622779 z m -5.350094,7.520705 h 3.103055 v -4.34122 q -0.366864,0.68787 -1.054733,1.666173 -0.680227,0.978303 -2.048322,2.675047 z" />
    <path
       inkscape:connector-curvature="0"
       id="path7726"
       style="font-style:normal;font-variant:normal;font-weight:bold;font-stretch:normal;font-size:medium;line-height:1.25;font-family:'Microsoft YaHei';-inkscape-font-specification:'Microsoft YaHei Bold';letter-spacing:0px;word-spacing:0px;fill:none;fill-opacity:1;stroke:#000000;stroke-width:0.36686364;stroke-opacity:1"
       d="m 40.529385,42.996053 v -2.132395 q 1.230522,0.749014 2.621547,0.749014 1.04709,0 1.6356,-0.512081 0.596154,-0.519723 0.596154,-1.398668 0,-1.841961 -2.522188,-1.841961 -0.932445,0 -2.147681,0.137574 l 0.443294,-6.534759 h 6.267254 v 2.033036 h -4.272433 l -0.168146,2.491616 q 0.634368,-0.0535 1.169378,-0.0535 1.734959,0 2.736191,0.947731 1.008875,0.947731 1.008875,2.568046 0,1.78846 -1.215236,2.927266 -1.215235,1.131163 -3.301772,1.131163 -1.689102,0 -2.850837,-0.512081 z" />
    <path
       inkscape:connector-curvature="0"
       id="path7728"
       style="font-style:normal;font-variant:normal;font-weight:bold;font-stretch:normal;font-size:medium;line-height:1.25;font-family:'Microsoft YaHei';-inkscape-font-specification:'Microsoft YaHei Bold';letter-spacing:0px;word-spacing:0px;fill:none;fill-opacity:1;stroke:#000000;stroke-width:0.36686364;stroke-opacity:1"
       d="m 57.129966,33.671602 q -0.901873,-0.51208 -1.964249,-0.51208 -1.368095,0 -2.193539,1.077662 -0.8178,1.070019 -0.8178,2.774406 h 0.04586 q 0.848372,-1.299309 2.514545,-1.299309 1.490383,0 2.361684,1.024161 0.878945,1.016518 0.878945,2.652119 0,1.78846 -1.138806,2.957838 -1.138806,1.161735 -2.911981,1.161735 -2.033036,0 -3.118341,-1.467455 -1.077662,-1.467454 -1.077662,-4.020214 0,-3.003696 1.398668,-4.876229 1.406311,-1.880177 3.905569,-1.880177 1.345167,0 2.117109,0.321006 z m -4.891515,5.739888 q 0,0.917159 0.45858,1.55917 0.458579,0.642012 1.207592,0.642012 0.756657,0 1.192307,-0.588511 0.435651,-0.58851 0.435651,-1.475097 0,-1.994821 -1.643243,-1.994821 -0.741371,0 -1.19995,0.527366 -0.450937,0.527367 -0.450937,1.329881 z" />
    <path
       inkscape:connector-curvature="0"
       id="path7730"
       style="font-style:normal;font-variant:normal;font-weight:bold;font-stretch:normal;font-size:medium;line-height:1.25;font-family:'Microsoft YaHei';-inkscape-font-specification:'Microsoft YaHei Bold';letter-spacing:0px;word-spacing:0px;fill:none;fill-opacity:1;stroke:#000000;stroke-width:0.36686364;stroke-opacity:1"
       d="m 67.516791,32.968447 q -1.436883,2.575688 -2.147681,4.150145 -0.703156,1.574456 -1.146449,3.06484 -0.443294,1.490384 -0.680227,3.118341 h -2.652118 q 0.38215,-2.315827 1.345167,-4.685154 0.97066,-2.376971 2.675047,-5.120806 h -5.648172 v -2.033036 h 8.254433 z" />
    <path
       inkscape:connector-curvature="0"
       id="path7732"
       style="font-style:normal;font-variant:normal;font-weight:bold;font-stretch:normal;font-size:medium;line-height:1.25;font-family:'Microsoft YaHei';-inkscape-font-specification:'Microsoft YaHei Bold';letter-spacing:0px;word-spacing:0px;fill:none;fill-opacity:1;stroke:#000000;stroke-width:0.36686364;stroke-opacity:1"
       d="m 68.846672,40.114645 q 0,-1.031804 0.596154,-1.834318 0.596153,-0.802514 1.727316,-1.177021 -0.901873,-0.450937 -1.398668,-1.146449 -0.489151,-0.695512 -0.489151,-1.543885 0,-0.886587 0.481508,-1.605028 0.489152,-0.726084 1.360453,-1.131163 0.871301,-0.412722 1.948963,-0.412722 1.085305,0 1.964249,0.405079 0.878945,0.397436 1.368096,1.12352 0.489152,0.718441 0.489152,1.589743 0,0.825443 -0.542653,1.536241 -0.535009,0.710798 -1.444525,1.12352 1.108233,0.38215 1.727316,1.184664 0.619082,0.794871 0.619082,1.86489 0,1.50567 -1.169378,2.453401 -1.169377,0.947731 -3.034268,0.947731 -1.86489,0 -3.034268,-0.947731 -1.169378,-0.947731 -1.169378,-2.430472 z m 2.468687,-0.221647 q 0,0.825444 0.473865,1.322238 0.473866,0.496795 1.268737,0.496795 0.7643,0 1.253451,-0.496795 0.489152,-0.496794 0.489152,-1.322238 0,-0.771942 -0.496795,-1.284022 -0.496794,-0.519724 -1.245808,-0.519724 -0.771942,0 -1.261094,0.519724 -0.481508,0.51208 -0.481508,1.284022 z m 0.366864,-5.227807 q 0,0.649655 0.397435,1.115877 0.405079,0.45858 1.016518,0.45858 0.588511,0 1.001232,-0.450937 0.412722,-0.450936 0.412722,-1.12352 0,-0.672583 -0.405079,-1.138806 -0.397435,-0.466222 -1.008875,-0.466222 -0.626725,0 -1.024161,0.466222 -0.389792,0.466223 -0.389792,1.138806 z" />
    <path
       inkscape:connector-curvature="0"
       id="path7734"
       style="font-style:normal;font-variant:normal;font-weight:bold;font-stretch:normal;font-size:medium;line-height:1.25;font-family:'Microsoft YaHei';-inkscape-font-specification:'Microsoft YaHei Bold';letter-spacing:0px;word-spacing:0px;fill:none;fill-opacity:1;stroke:#000000;stroke-width:0.36686364;stroke-opacity:1"
       d="m 79.179999,41.001232 q 0.947731,0.61144 2.231754,0.61144 2.866122,0 2.927266,-3.729781 l -0.04586,-0.01529 q -0.779585,1.19995 -2.407542,1.19995 -1.475098,0 -2.430472,-1.031804 -0.947731,-1.039447 -0.947731,-2.613903 0,-1.849605 1.146449,-3.003697 1.146449,-1.154092 2.98841,-1.154092 1.918391,0 3.011339,1.459812 1.092948,1.459812 1.092948,4.073715 0,3.103055 -1.322238,4.906802 -1.314594,1.803746 -3.790924,1.803746 -1.398668,0 -2.453401,-0.450937 z m 1.750246,-5.801031 q 0,0.940088 0.450936,1.475097 0.45858,0.53501 1.245808,0.53501 0.703155,0 1.154092,-0.512081 0.45858,-0.51208 0.45858,-1.268736 0,-0.909517 -0.45858,-1.589743 -0.450937,-0.680226 -1.215236,-0.680226 -0.74137,0 -1.192307,0.58851 -0.443293,0.588511 -0.443293,1.452169 z" />
    <path
       inkscape:connector-curvature="0"
       id="path7736"
       style="font-style:normal;font-variant:normal;font-weight:bold;font-stretch:normal;font-size:medium;line-height:1.25;font-family:'Microsoft YaHei';-inkscape-font-specification:'Microsoft YaHei Bold';letter-spacing:0px;word-spacing:0px;fill:none;fill-opacity:1;stroke:#000000;stroke-width:0.36686364;stroke-opacity:1"
       d="M 94.152623,31.202916 V 43.301773 H 91.66865 v -9.316808 q -0.458579,0.397436 -1.25345,0.718441 -0.794872,0.313363 -1.459812,0.389793 V 32.97609 q 2.09418,-0.61144 3.622778,-1.773174 z" />
    <path
       inkscape:connector-curvature="0"
       id="path7738"
       style="font-style:normal;font-variant:normal;font-weight:bold;font-stretch:normal;font-size:medium;line-height:1.25;font-family:'Microsoft YaHei';-inkscape-font-specification:'Microsoft YaHei Bold';letter-spacing:0px;word-spacing:0px;fill:none;fill-opacity:1;stroke:#000000;stroke-width:0.36686364;stroke-opacity:1"
       d="m 97.767759,37.577171 q 0,-3.072483 1.131163,-4.692797 1.131168,-1.620315 3.271198,-1.620315 4.08136,0 4.08136,6.037965 0,2.973124 -1.10823,4.593438 -1.10824,1.612672 -3.20242,1.612672 -4.173071,0 -4.173071,-5.930963 z m 2.499261,-0.06114 q 0,4.096644 1.75024,4.096644 1.71968,0 1.71968,-4.218932 0,-4.234218 -1.67382,-4.234218 -1.7961,0 -1.7961,4.356506 z" />
    <path
       inkscape:connector-curvature="0"
       id="path7740"
       style="font-style:normal;font-variant:normal;font-weight:bold;font-stretch:normal;font-size:medium;line-height:1.25;font-family:'Microsoft YaHei';-inkscape-font-specification:'Microsoft YaHei Bold';letter-spacing:0px;word-spacing:0px;fill:none;fill-opacity:1;stroke:#000000;stroke-width:0.36686364;stroke-opacity:1"
       d="m 113.47411,31.202916 v 12.098857 h -2.48397 v -9.316808 q -0.45858,0.397436 -1.25345,0.718441 -0.79487,0.313363 -1.45981,0.389793 V 32.97609 q 2.09418,-0.61144 3.62277,-1.773174 z" />
    <path
       inkscape:connector-curvature="0"
       id="path7742"
       style="font-style:normal;font-variant:normal;font-weight:bold;font-stretch:normal;font-size:medium;line-height:1.25;font-family:'Microsoft YaHei';-inkscape-font-specification:'Microsoft YaHei Bold';letter-spacing:0px;word-spacing:0px;fill:none;fill-opacity:1;stroke:#000000;stroke-width:0.36686364;stroke-opacity:1"
       d="m 123.13485,31.202916 v 12.098857 h -2.48398 v -9.316808 q -0.45858,0.397436 -1.25345,0.718441 -0.79487,0.313363 -1.45981,0.389793 V 32.97609 q 2.09418,-0.61144 3.62278,-1.773174 z" />
    <path
       inkscape:connector-curvature="0"
       id="path7744"
       style="font-style:normal;font-variant:normal;font-weight:bold;font-stretch:normal;font-size:medium;line-height:1.25;font-family:'Microsoft YaHei';-inkscape-font-specification:'Microsoft YaHei Bold';letter-spacing:0px;word-spacing:0px;fill:none;fill-opacity:1;stroke:#000000;stroke-width:0.36686364;stroke-opacity:1"
       d="m 132.79559,31.202916 v 12.098857 h -2.48397 v -9.316808 q -0.45858,0.397436 -1.25345,0.718441 -0.79487,0.313363 -1.45981,0.389793 V 32.97609 q 2.09418,-0.61144 3.62277,-1.773174 z" />
    <path
       inkscape:connector-curvature="0"
       id="path7746"
       style="font-style:normal;font-variant:normal;font-weight:bold;font-stretch:normal;font-size:medium;line-height:1.25;font-family:'Microsoft YaHei';-inkscape-font-specification:'Microsoft YaHei Bold';letter-spacing:0px;word-spacing:0px;fill:none;fill-opacity:1;stroke:#000000;stroke-width:0.36686364;stroke-opacity:1"
       d="m 139.48321,41.245808 h 5.02145 v 2.055965 h -7.87229 v -0.878944 q 0,-0.924802 0.3363,-1.689102 0.34393,-0.764299 0.94008,-1.421596 0.59616,-0.664941 1.84961,-1.551528 1.14645,-0.856015 1.60503,-1.513312 0.45858,-0.664941 0.45858,-1.406311 0,-1.597385 -1.74261,-1.597385 -1.5286,0 -2.91962,1.222878 v -2.201181 q 1.55153,-1.001233 3.4852,-1.001233 1.77318,0 2.80498,0.909517 1.03181,0.901873 1.03181,2.491615 0,0.886587 -0.29808,1.605029 -0.29808,0.710798 -0.86366,1.337523 -0.56558,0.626726 -1.81139,1.50567 -1.19995,0.856015 -1.61267,1.322238 -0.41272,0.466222 -0.41272,0.810157 z" />
  </g>
</svg>
